<svg width="596" height="703" viewBox="0 0 596 703" fill="none" xmlns="http://www.w3.org/2000/svg">
<path d="M354.655 378.571L354.424 378.095L355.105 375.683L353.933 373.776L354.083 371.787L354.71 369.92L354.369 369.484L353.156 369.975L351.603 369.498L350.281 367.359L349.845 365.711L350.145 362.727L352.448 358.681L354.192 358.885L356.454 358.204L358.471 356.665L358.444 357.441L360.052 358.626L360.011 359.512L360.693 359.798L360.57 360.452L360.938 360.888L361.374 361.092L361.783 360.806L363.064 361.338L363.773 362.305L364.931 362.073L366.185 361.079L367.043 361.065L368.065 361.705L367.97 362.032L369.115 362.1L369.087 362.523L370.437 363.204L372.781 361.297L373.871 361.188L373.435 362.318L374.307 363.422L374.293 364.117L376.011 363.763L377.169 363.013L379.295 363.422L379.595 363.953L380.739 363.585L380.317 364.921L381.026 365.602L380.235 366.378L380.344 367.019L379.717 367.346L377.728 370.07L377.687 371.514L375.942 374.144L372.195 376.228L371.609 377.904L371.827 381.065L367.18 382.141L362.505 383.816L359.739 384.184L359.384 383.898L360.475 381.569L361.142 381.637L361.483 382.413L364.699 381.024L365.871 380.302L365.735 379.702L366.348 379.212L367.002 379.416L367.302 379.157L367.588 377.604L366.812 376.651L364.508 376.228L363.8 376.855L363.473 378.122L362.369 377.345L359.466 377.686L357.531 375.819L357.953 374.348L357.354 374.089L356.781 374.893L356.413 377.917L357.803 379.184L358.008 380.383L355.705 379.566L354.655 378.571Z" fill="#646464" fill-opacity="0.18"/>
<path d="M440.853 211.723L439.912 207.977L438.018 205.77L438.713 204.666L439.722 204.979L440.539 206.192L440.798 204.639L440.444 204.08L440.989 203.249L441.248 201.342L440.785 199.421L439.326 198.821L438.713 199.407L437.977 200.511L437.146 203.317L437.882 203.889L437.773 205.606L436.751 205.211L435.538 205.415L435.279 205.756L435.511 206.914L432.649 206.791L431.34 204.285L431.041 202.514L431.231 201.519L433.862 203.317L434.775 203.031L436.792 201.042L437.977 198.903L439.067 195.647L439.885 191.56L439.926 189.285L437.582 186.819L438.277 186.669L439.817 187.146L440.171 185.961L441.221 185.484L441.957 185.92L442.243 186.587L444.26 186.41L445.364 186.792L447.203 186.274L448.375 186.519L449.057 185.157L450.842 185.007L451.21 186.152H452.3L453.867 187.773L455.23 186.628L456.934 187.773L458.01 186.914L459.046 186.846L460.027 186.002L460.995 186.138L461.322 184.667L462.998 183.999L462.78 187.201L465.683 186.887L466.065 189.394L465.506 189.762L464.824 191.424L465.015 193.209L464.47 193.985L463.639 194.285L462.535 195.797L463.08 196.465L462.876 198.59L462.167 199.217L462.099 202.868L462.944 206.274L462.181 206.519L461.513 205.865L460.395 206.478L460.491 207.922L462.017 208.821L460.9 210.824L460.368 211.015L461.268 212.609L461.445 214.08L460.75 215.701L460.382 215.66L459.55 216.832L458.978 216.982L459.264 217.963L458.678 219.788L457.615 220.946L457.683 222.05L457.07 222.213L457.002 223.099L457.533 223.221L458.351 224.924L458.147 226.178L458.869 227.199L460.395 228.249L459.946 229.693L461.104 230.292L460.286 230.701L459.646 231.832L460.014 232.131L459.632 233.453L460.954 233.97L461.145 234.515L460.068 236.382L460.177 237.949L459.21 238.18L456.975 240.319L454.576 240.809L454.208 240.564L453.881 239.951L451.81 239.229L451.019 236.777L449.575 236.668L449.098 235.619L447.626 235.987L443.428 234.706L442.352 233.752L441.384 233.507L441.112 231.913L439.776 232.24L439.272 232.867L435.851 232.308L436.778 230.306L436.464 229.039L436.996 227.976L436.941 227.254L437.473 226.423L438.427 226.273L439.708 223.017L440.798 217.309L440.853 211.723Z" fill="#646464" fill-opacity="0.18"/>
<path d="M469.649 171.179L470.902 170.048L471.693 168.618L472.47 166.098L472.783 162.76L473.587 161.207L472.606 158.4L471.434 156.983L470.357 156.874L469.199 159.068L467.659 160.171L465.587 159.599L464.674 160.485L462.208 160.948L461.049 162.133L459.782 161.493L460.722 155.24L461.295 154.34L461.717 151.834L463.666 149.068L463.366 147.951L463.775 147.202L466.119 149.341L467.918 149.49L469.131 150.172L471.27 152.855L473.26 154.013L474.473 154.163L475.836 153.659L478.616 151.384L476.585 160.716L476.449 167.651L477.199 175.212L479.066 181.833L480.674 183.318L481.587 182.786L481.9 183.536L484.503 186.111L483.863 186.846L481.968 187.691L481.818 188.822L480.606 189.762L478.916 188.713L477.989 188.835L475.645 190.334L474.718 188.863L472.047 190.893L469.976 191.41L468.967 192.091L468.913 193.072L468.286 193.1L466.923 194.162L465.642 194.149L465.015 193.222L464.824 191.437L465.506 189.775L466.064 189.408L465.683 186.901L462.78 187.214L462.998 184.013L461.322 184.68L460.995 186.152L460.027 186.015L459.046 186.86L458.01 186.928L456.934 187.786L455.23 186.642L453.867 187.786L452.3 186.165H451.21L450.842 185.021L449.057 185.171L448.375 186.533L447.203 186.288L445.363 186.805L444.26 186.424L442.243 186.601L441.956 185.934L441.22 185.498L440.171 185.974L439.817 187.16L438.277 186.683L437.582 186.833L437.936 184.408L437.677 182.446L437.064 181.274L435.756 181.342L435.551 180.225L437.977 178.291L439.367 175.838L440.253 175.239L441.084 174.898L442.76 175.838L444.709 174.381L445.813 174.244L446.386 173.413L447.776 168.495L447.871 163.318L446.931 162.297L445.977 162.188L446.208 161.656L447.408 161.97L447.925 161.384L448.471 157.365L449.956 158.305L450.869 159.654L451.741 160.144L452.654 159.885L454.017 158.509L455.503 159.027L456.388 160.008L456.239 163.1L456.77 166.534L457.765 171.002L459.032 172.623L460.845 172.473L462.467 170.73L462.766 169.967L462.467 168.277L462.916 166.302L464.947 167.038L465.874 168.345L465.628 169.095L466.623 169.081L467.877 169.694L468.599 170.893L469.649 171.179Z" fill="#646464" fill-opacity="0.18"/>
<path d="M434.938 358.463L435.129 358.177L436.437 358.749L436.969 358.109L436.56 357.128L436.683 356.338L438.522 355.82L438.359 355.125L438.74 354.948L439.067 355.466L441.125 352.523L441.902 353.136L442.215 352.659L441.48 350.902L440.444 349.771L438.795 348.15L437.854 348.545L437.378 347.51L435.906 344.431L436.369 344.076L436.669 342.265L434.379 337.878L434.311 336.461L433.344 334.54L433.916 334.581L434.366 335.725L436.587 338.464L437.568 338.79L437.841 339.758L439.258 340.711L442.611 341.883L443.401 342.864L444.791 342.305L445.963 342.455L446.767 341.91L447.858 342.224L449.029 341.107L451.769 340.398L453.241 341.107L454.481 341.052L456.021 342.373L457.697 342.728L459.21 344.812L462.617 346.91L462.467 347.796L461.431 347.101L459.387 347.782L458.297 347.482L457.274 347.741L453.568 350.561L451.673 352.7L450.147 355.643L449.752 358.804L450.392 360.479L449.561 364.362L448.648 364.553L448.007 365.942L447.626 366.079L444.696 366.923L444.382 366.324L442.638 366.583L441.534 368.081L438.849 369.934L438.154 371.583L438.291 372.373L437.677 373.204L436.26 373.79L434.666 373.503L434.407 372.523L432.621 371.61L432.662 371.215L433.752 371.365L435.456 370.602L434.393 368.34L435.02 367.659L434.529 367.168L434.924 366.215L434.366 365.438L434.379 364.308L435.633 363.34L435.742 362.632L435.143 361.61L435.224 361.079L434.202 360.452L434.938 358.463Z" fill="#646464" fill-opacity="0.18"/>
<path d="M237.223 426.104L237.536 425.518L238.013 425.164L238.49 425.219L238.517 424.946L238.122 424.769L237.604 424.551L236.964 424.769L236.582 425.082L235.983 424.742L235.71 425.26L235.165 425.082L234.974 424.769H234.347L234.524 424.156L234.756 423.979L234.947 423.843L235.369 423.679L235.329 423.448L235.274 423.107L234.865 423.148L234.565 422.644L235.042 422.249L234.947 421.758L234.579 421.663L235.056 421.227L235.274 421.172L235.574 420.805L235.696 420.178L235.383 420.355L234.838 420.287L235.07 419.728L234.375 419.865L233.925 419.374L233.611 419.456L233.134 419.851L231.962 420.668L231.254 420.859L230.804 421.363L229.305 421.813L228.528 422.535L228.31 422.957L227.888 423.339L227.193 423.42L227.152 423.093L227.629 422.794L227.642 422.562L226.947 422.589L225.789 423.557L225.094 423.979L224.753 423.993L227.683 421.527L228.378 421.118L229.278 420.628L230.054 420.736L230.477 420.287L230.899 420.096L231.526 420.042L231.853 419.851L231.99 419.606L233.57 418.897L234.742 418.025L235.765 417.48L236.051 416.799L237.182 415.451L238.04 414.824L240.153 414.061L241.815 412.821L242.102 412.494L242.606 411.159L243.219 410.614L242.906 409.633L242.892 408.285L243.165 406.868L243.492 405.969L244.078 406.2L244.664 405.805L245.127 404.143L245.222 403.298L247.635 401.023L249.147 400.792L249.066 400.178L249.42 399.947L249.215 399.184L249.706 398.367L250.728 399.552L252.064 401.473L253.045 403.489L253.563 404.306L253.74 404.892L254.421 405.383L255.716 404.947L257.597 404.484L258.101 404.347L257.937 403.721L259.573 403.448L259.9 403.094L260.418 403.162L260.922 403.612L261.876 403.203L262.803 403.339L263.457 403.475L264.452 403.925L265.133 403.83L266.073 403.148L266.346 402.685L266.537 402.086L266.755 401.977L267.3 401.609L267.75 401.977L269.044 402.154L269.876 402.617L269.48 403.544L269.848 404.211V405.628L269.548 406.459L269.085 406.854L268.526 406.868L267.641 406.854L267 407.304L266.305 406.84L266.019 406.895L265.256 407.944L264.969 408.312L264.697 408.53L261.876 408.625L260.786 408.448L258.782 408.475L258.51 408.707L258.21 409.701L257.965 409.851L257.256 410.11L256.793 409.647L256.52 409.674L256.166 410.614L255.634 411.69L255.089 412.235L254.612 412.917L254.53 413.666L254.231 414.047L253.399 414.184L253.154 415.069L252.813 416.064L252.554 416.69L252.95 417.085L253.004 417.794L252.513 418.162L251.737 419.36L251.723 419.728L250.088 420.192L249.801 420.014L248.902 420.123L247.13 419.837L246.572 419.987L246.136 420.396L246.613 420.832L246.817 422.112L247.021 422.385H247.294L247.607 423.366L248.221 423.557L248.589 424.047L248.643 424.824L248.534 425.123L247.444 425.75L245.795 426.322L245.372 427.031L245.127 428.584L244.541 428.625L244.309 428.829L244.119 429.469L243.151 430.695L242.892 430.791L241.597 429.537L241.448 429.17L241.175 429.265L240.984 429.66L241.379 430.505L241.338 430.859L241.979 431.554L242.265 431.622L242.388 432.03L242.115 433.284L242.524 433.706L242.81 434.987L242.797 436.799L242.238 436.935L242.17 437.453L241.734 437.289L240.453 437.766L240.262 437.398L239.921 436.935L239.799 436.69L239.172 436.908L238.913 437.03L238.558 437.112L238.531 437.507L238.558 437.684L238.299 438.038L237.822 437.998L237.454 438.011L237.114 437.957L237.223 437.453L236.787 436.935L236.923 436.771L237.414 436.717L237.891 436.363L237.032 435.9L237.414 435.586L237.741 435.777L237.945 435.831L238.136 435.695L237.85 435.164L237.986 434.81L237.577 434.619L237.414 434.564L237.4 433.434L237.018 433.379L236.541 433.829L235.969 433.502L235.451 433.733L235.274 433.842L235.151 434.129L235.083 434.524L234.593 434.278L235.042 433.733L235.07 433.216L235.274 432.739L235.574 432.671L235.846 432.821L236.037 433.284L236.487 433.202L237.264 432.902L237.441 432.535L237.032 432.371L237.318 431.84L237.836 431.022L237.809 430.573L237.277 430.45L237.073 430.464L236.773 430.573L236.569 430.75L236.269 430.559L236.337 430.219L235.846 429.987L236.051 429.537L236.446 429.061L235.737 428.298L236.432 428.57L237.373 429.033L237.768 429.483L238.245 429.51L238.136 429.006L237.863 428.447L238.286 428.08L239.049 428.134L239.362 428.093L239.485 427.875L239.294 427.412L238.913 427.467L238.395 427.003L238.926 426.717L238.981 426.295L237.891 426.363L237.223 426.104Z" fill="#646464" fill-opacity="0.18"/>
<path d="M324.701 351.747L326.282 352.727L326.377 353.245L326.8 353.191L327.372 352.836L326.486 351.733L326.759 351.556L327.495 352.046L327.999 351.161L327.209 350.548L326.868 349.403L327.672 349.608L328.258 350.548L329.294 350.003L329.498 350.48L331.161 349.989L331.474 349.403L331.134 348.967L331.215 347.673L330.629 346.747L332.319 345.398L332.851 346.215L332.537 348.164L333.028 348.899L333.846 348.749L334.5 346.679L334.527 344.935L333.75 343.395L331.679 341.324L331.788 339.826L330.711 338.205L332.156 336.474L332.633 334.445L335.495 330.235L335.167 329.336H336.326L338.411 327.851L340.7 330.017L341.041 331.72L341.6 332.238L342.826 332.06L343.712 333.096L344.353 333.164L346.738 332.592L349.272 334.581L349.6 335.425L352.175 334.772L352.461 335.439L351.794 335.943L351.453 337.837L352.134 338.341L352.066 339.063L353.143 339.444L352.966 340.112L353.838 340.834L354.247 342.496L353.388 343.123L353.156 344.185L351.33 344.158L349.79 344.826L349.218 344.117L348.591 344.73L347.882 344.499L347.215 345.098L346.097 344.812L345.334 345.861L344.925 345.166L343.481 345.194L341.886 344.621L340.66 345.275L340.646 346.597L339.297 348.831L336.83 347.55L335.917 347.728L335.495 348.64L336.626 351.038L336.449 352.06L334.949 351.624L334.472 353.082L332.714 353.259L332.101 354.444L331.474 354.58L330.425 353.531L329.008 357.305L328.231 357.686L327.754 357.141L326.854 357.128L326.786 357.809L326.282 357.945L325.669 358.953L323.802 359.308L321.744 358.504L319.386 358.245L319.209 357.06L317.424 355.411L317.819 354.049L317.11 353.477L317.669 352.251L318.868 352.482L318.582 353.967L318.827 354.308L322.344 354.839L324.769 354.321L325.137 353.123L324.251 353.49L324.211 352.809L323.434 352.659L324.142 351.856L324.701 351.747Z" fill="#646464" fill-opacity="0.18"/>
<path d="M181.443 412.903L183.133 411.064L183.324 410.246L183.16 409.756L182.711 409.77L182.629 408.843L183.392 408.775L183.733 407.671L184.891 406.963L184.782 406.432L185.845 406.391L186.186 406.8L187.603 406.65L188.53 406.105L189.497 404.824L190.996 405.437L191.61 404.974L194.049 405.505L194.635 406.295L195.644 405.914L196.08 404.865L197.661 403.83L198.206 404.252L197.224 406.091L197.456 407.399L196.38 408.353L196.679 408.979L197.579 408.802L198.328 412.249L200.236 415.11L200.999 414.728L202.471 415.764L202.267 416.268L202.676 417.358L202.144 418.066L202.321 418.693L199.718 418.843L198.396 418.475L197.129 418.788L194.935 420.668L194.526 422.916L193.858 423.093L193.218 424.033L193.627 424.251L194.022 425.546L193.831 426.418L193.122 426.772L192.959 427.289L193.45 427.548L193.409 428.393L194.553 429.388L193.899 431.268L193.422 431.608L191.337 430.9L190.424 430.069L189.32 430.123L189.102 429.578L188.38 431.54L186.336 431.308L184.128 433.338L184.373 434.796L181.457 434.687L182.111 433.189L181.675 432.099L180.666 431.036L180.707 430.477L180.203 430.219L180.435 428.543L181.239 427.126L183.76 425.191L184.455 424.02L185.15 424.061L185.177 420.995L184.619 420.709L183.61 421.05L182.261 422.344L181.416 421.377L180.367 421.145L178.05 419.687L177.396 419.987L176.224 419.66L175.283 420.096L171.699 419.987L171.904 419.061L174.098 418.625L174.834 417.753L175.093 417.004L174.52 417.412L174.316 416.799L173.948 416.581L173.335 416.908L173.035 416.363L174.656 415.886L175.052 415.369L174.888 414.851L176.047 414.442L176.251 413.611L177.055 414.156L176.714 414.66L176.96 415.233L178.077 415.423L178.227 416.377L178.881 416.268L179.099 415.805L179.999 415.9L181.416 415.233L181.58 414.088L182.356 413.775L182.247 412.957L181.443 412.903Z" fill="#646464" fill-opacity="0.18"/>
<path d="M465.274 304.827L464.429 305.93L461.036 307.552L460.504 308.451L460.559 309.105L455.884 307.688L455.108 306.285L454.644 306.911L455.271 308.682L453.745 309.35L451.755 311.257L451.169 310.481L449.615 309.908L449.166 308.328L448.048 307.987L447.013 306.598L446.263 306.557L445.813 306.107L446.031 303.573L444.873 303.642L444.559 302.361L443.169 301.026L439.912 299.663L436.628 299.282L434.775 300.086L434.529 301.326L430.727 302.511L430.373 303.083L429.296 303.342L428.983 303.941L428.124 304.064L426.87 305.072L425.017 305.399L424.049 306.789L422.768 307.374L419.634 306.394L418.925 306.666L418.912 306.162L419.239 305.59L419.089 303.764L419.389 302.702L418.816 300.808L419.293 299.064L418.653 297.797L417.726 297.579L416.922 296.489L418.244 294.582L418.516 293.002L418.707 291.38L417.794 290.617L418.571 289.364L421.501 289.037L422.25 288.642L423.177 288.969L423.613 287.348L424.172 287.13L424.813 287.075L425.344 287.511L425.848 287.184L427.565 287.484L428.22 287.171L427.702 286.053L427.824 284.95L427.252 283.547L427.293 282.552L429.378 281.135L429.201 280.808L430.168 279.037L432.322 276.708L433.398 276.462L434.257 277.389L435.538 276.599L436.369 277.13L437.228 277.035L437.677 276.558L438.999 278.847L440.675 278.22L442.679 279.746L443.687 278.983L445.459 279.337L447.271 277.144L446.522 276.585L446.467 273.847L446.876 271.517L448.771 272.416L450.311 271.64L451.864 272.58L452.368 274.065L455.98 273.697L457.097 274.078L457.86 274.705L457.615 276.258L457.997 277.28L458.855 277.961L460.504 278.329L460.709 278.111L460.068 277.58L462.221 277.661L462.399 277.362L462.358 274.405L463.339 274.037L464.279 274.283L464.797 276.026L465.765 276.612L465.833 278.356L466.432 279.378L467.182 287.593V292.102L465.274 304.827ZM460.6 309.132L460.641 309.145L460.6 309.132Z" fill="#646464" fill-opacity="0.18"/>
<path d="M343.058 363.422L342.077 362.482L342.513 362.196L342.54 360.929L342.976 360.22L343.031 358.395L343.78 357.795L343.058 356.637L343.181 355.275L342.322 354.403L342.649 353.191L341.9 352.223L341.477 352.905L340.414 352.509L340.578 350.33L339.678 350.234L339.324 348.777L340.66 346.542L340.673 345.221L341.9 344.567L343.494 345.139L344.939 345.125L345.348 345.82L346.111 344.771L347.228 345.071L347.882 344.472L348.591 344.703L349.218 344.104L349.777 344.812L351.317 344.145L353.156 344.172L353.388 343.109L354.233 342.482L353.824 340.82L352.952 340.112L353.116 339.444L352.039 339.063L352.107 338.341L351.439 337.837L351.766 335.943L352.448 335.439L352.162 334.772L352.843 333.287L352.53 332.278L353.361 331.965L354.642 329.69L354.587 329.159L353.552 328.573L353.211 327.783L354.001 327.674L354.397 326.23L355.446 325.467L355.787 326.27L356.264 325.78L357.517 326.475L357.981 327.524L357.626 328.518L358.09 328.627L359.984 326.965L360.325 325.399L363.159 322.647L363.909 322.619L364.25 323.219L366.239 322.279L367.043 322.347L367.098 323.546L367.384 323.6L369.224 322.51L369.605 323.573L371.145 324.05L372.113 323.587L373.258 324.704L374.539 324.799L374.716 325.494L376.12 326.393L376.242 327.115L376.12 328.178L374.225 330.644L374.743 331.393L374.675 332.101L373.653 333.069L373.639 334.172L374.266 334.853L375.247 335.194L374.716 337.333L373.353 338.368L372.849 339.622L372.249 339.758L371.541 341.202L370.968 341.297L370.519 340.848L368.951 341.324L368.474 342.769L367.67 343.109L367.52 343.845L367.916 344.376L369.333 344.39L369.401 345.085L371.077 345.589L372.167 348.027L373.23 348.981L372.644 350.725L373.176 351.338L373.081 352.836L373.503 353.586L374.961 353.15L375.738 353.885V355.125L374.852 356.079L375.82 357.414L374.634 357.809L374.988 359.539L373.844 360.425L373.857 361.147L372.767 361.256L370.423 363.163L369.074 362.496L369.101 362.06L367.956 362.005L368.052 361.678L367.03 361.024L366.171 361.051L364.917 362.046L363.759 362.278L363.05 361.31L361.769 360.779L361.36 361.065L360.924 360.861L360.556 360.425L360.679 359.757L360.011 359.485L360.052 358.599L358.444 357.414L358.471 356.651L356.441 358.177L354.178 358.858L352.448 358.654L350.145 362.714L349.845 365.697L348.373 365.534L346.07 362.128L343.058 363.422Z" fill="#646464" fill-opacity="0.18"/>
<path d="M430.196 330.412L429.773 331.202L429.105 331.447L428.397 330.793L424.935 331.447L422.469 329.622L421.297 329.908L419.975 329.513L419.157 329.717L416.854 328.546L415.9 328.477L414.224 331.161L414.196 332.428L413.624 333.464L411.539 333.559L410.912 334.622L408.841 335.167L407.587 336.543L405.911 336.57L404.888 337.946L404.398 338.068L403.907 337.36L403.076 337.101L402.558 334.69L403.008 334.213L402.626 333.3L401.74 333.191L401.141 332.156L401.359 331.924L401.986 332.374L402.599 331.72L402.64 330.616L402.067 330.017L401.754 328.505L403.158 327.578L403.253 325.562L402.858 323.995L401.727 323.655L400.773 323.791L400.173 324.336L398.974 323.995L398.688 324.418L398.102 324.322L396.398 323.314L396.316 321.543L397.134 319.281L397.107 317.933L398.415 316.325L399.723 316.107L399.737 314.622L402.176 314.132L404.289 313.001L404.63 313.233L405.12 312.374L406.755 312.974L407.832 312.061L407.696 310.699L408.568 310.739L410.599 309.895L410.258 309.295L410.653 308.001L411.811 308.151L411.934 307.797L411.566 305.167L413.801 304.786L414.919 303.791L415.082 302.497L417.181 304.609L417.331 305.644L418.585 305.74L418.898 306.203L418.912 306.707L419.62 306.434L422.755 307.402L421.964 309.5L423.354 310.099L421.964 312.02L422.346 313.614L421.542 314.827L421.297 316.693L423.3 317.701L424.976 317.606L425.439 318.532L424.322 319.418L423.777 321.053L424.227 322.088L422.605 324.2L422.36 325.507L423.791 326.57L423.736 327.36L425.249 328.682L426.625 328.287L427.593 328.872L429.105 328.627L429.623 328.954L429.501 329.336L430.196 330.412Z" fill="#646464" fill-opacity="0.18"/>
<path d="M290.576 378.122L289.091 379.348L287.442 379.048L286.706 377.182L285.234 375.874L284.989 375.234L285.943 373.449L285.016 372.291L285.493 371.855L285.698 370.615L285.425 369.811L286.679 369.076L286.761 367.809L287.565 367.468L287.892 365.97L288.219 365.615L289.132 365.711L289.241 364.648L288.382 363.749L288.982 362.659L289.772 363.013L292.007 361.447L291.653 359.866L291.858 359.28L290.863 357.973L290.985 356.501L289.99 356.038L289.323 353.477L289.486 352.087L288.968 351.038L288.028 350.33L290.931 349.431L292.593 348.422L294.229 348.845L294.801 349.485L295.919 348.572L297.799 348.845L299.544 348.45L300.157 348.899L301.493 348.817L301.52 351.569L302.692 352.659L302.978 353.49L303.959 353.736L305.772 352.836L306.208 353.572V357.155L304.968 357.864L303.414 357.114L302.91 358.477L302.937 360.207L304.968 361.038L306.767 362.577L307.802 361.951L309.192 361.978L309.22 363.04L310.392 364.158L310.051 364.907L310.8 365.234L311.386 364.743L312.49 364.798L312.79 364.88L312.845 365.874L314.003 365.629L315.325 366.297L315.72 368.013L315.202 368.299L314.971 369.035L314.385 368.967L313.989 369.389L314.535 369.716L314.644 371.038L314.317 371.528L316.224 372.632L317.533 372.822L316.293 373.517L316.879 373.858L316.238 376.637L317.247 378.326L317.451 380.274L316.715 381.923L316.115 381.473L316.306 380.833L315.965 380.125L314.712 380.56L314.139 379.743L312.817 379.566L310.119 380.847L309.983 381.773L306.467 382.645L300.648 380.302L298.372 378.054L290.576 378.122ZM303.387 393.217L303.687 394.266L300.879 395.41L299.544 396.527L297.718 396.786L297.704 396.173L296.9 395.751L296.982 395.07L296.396 394.852L295.66 393.476L296.573 392.168L297.091 392.495L297.731 392.168L299.544 388.326L300.089 387.699L300.648 387.713L301.942 385.669L303.237 385.084L304.286 383.558L305.036 383.163L305.635 384.293L304.818 385.274L304.613 386.323L302.188 389.498L302.174 391.596L303.387 393.217Z" fill="#646464" fill-opacity="0.18"/>
<path d="M449.738 97.5027L453.431 94.6008L453.486 93.797L450.815 89.4784L448.934 88.1296L447.98 86.5493L448.907 83.0889L448.539 82.435L450.774 82.5848L451.591 82.0126L451.878 81.2769L452.6 80.9908L456.348 84.6147L458.978 85.8L460.518 87.5438L463.898 86.9035L464.129 86.3313L465.519 85.8953L466.501 85.9226L466.31 87.5166L470.453 89.4102L473.451 87.7482L476.136 84.8191L477.485 82.6393L477.621 79.4378L475.74 75.6776L476.476 73.0347L475.577 71.0729L474.963 67.9803L476.354 65.1193L478.357 63.9068L479.393 63.8387L482.159 62.0404L483.426 59.4655L483.985 56.8089L483.508 46.1008L484.19 45.6648L486.425 40.9783L486.711 37.082L487.229 36.0057L487.406 33.8259L486.997 29.371L485.948 24.1395L481.805 14.167L481.382 12.5867L481.478 11.238L482.65 9.50776L483.726 6.85116L483.168 4.94385L483.372 3.20003L484.394 4.24905L484.571 4.95748L485.103 5.17545L487.501 4.79399L489.341 3.51337L490.091 0.802276L491.276 0.379944L491.917 0.829523L492.68 2.58697L493.484 3.05017L494.343 5.05284L497.504 7.36886L500.516 11.6194L507.262 19.1942L512.59 29.044L516.106 32.518L519.432 36.7414L527.036 42.7357L529.176 43.9483L529.625 45.2425L531.343 46.5504L536.385 49.1933L540.8 50.9372L548.814 53.2396L552.616 53.9616L553.216 53.5393L553.611 54.5883L553.529 56.3321L554.715 58.4438L555.505 59.0977L559.88 60.4737L564.527 60.7598L568.029 60.3238L571.136 57.6127L573.235 54.997L576.206 52.2178L578.7 50.5012L579.599 48.5258L581.098 46.9454L582.161 45.0654L582.788 45.1063L583.402 48.1443L581.753 51.5366L580.512 52.79L579.695 56.0596L577.337 58.9615L576.056 61.8497L576.192 62.9804L575.143 65.7733L575.443 67.2174L577.283 70.7323L579.313 73.4161L581.385 80.5413L583.415 83.2115L581.834 82.4894L581.575 81.7674L580.022 81.4677L579.695 81.9717L579.981 83.6883L581.153 82.7755L581.794 83.3205L581.398 84.0698L581.903 84.6011L582.448 84.2196L585.923 85.0643L588.771 82.7483L589.207 81.9309L590.72 80.9636L591.047 80.2824L595.517 80.5549L595.258 81.2361L593.664 82.4758L591.306 82.8982L588.757 84.3014L587.667 88.2931L586.618 87.8027L584.928 87.7345L581.235 88.4293L579.177 89.6555L577.46 89.3694L576.615 90.1868L576.424 91.7535L574.244 94.6826L572.854 95.3501L570.264 95.2139L569.038 94.1376L569.079 93.4156L569.528 92.9933L568.779 92.4892L567.784 92.6254L566.162 94.9823L566.135 95.5409L567.702 97.0803L564.963 96.9168L563.396 96.44L558.517 96.4128L557.577 96.2084L555.423 94.4782L551.253 95.2139L547.941 96.8215L543.308 100.268L536.126 107.448L530.566 115.35L528.481 119.859L528.099 122.134L528.849 124.096L527.731 129.382L526.491 131.466V133.66L521.449 128.592L514.839 125.84L503.814 119.777L500.571 117.502L498.063 114.709L493.688 113.429L490.677 110.636L488.196 109.001L485.702 108.279L482.459 108.224L478.139 109.641L475.304 111.399L471.652 114.505L469.485 115.717L466.596 119.055L466.133 120.077L464.674 119.532L464.225 118.783L464.742 118.388L465.547 119.26L465.71 118.156L463.87 117.597L462.685 114.369L461.608 113.824L460.15 112.298L459.986 111.508L458.256 109.832L456.566 109.709L454.862 110.431L453.54 109.628L451.891 109.669L449.602 112.134L447.639 115.881L446.672 119.355L447.053 121.998L450.215 123.633L453.949 126.834L454.971 127.025L456.838 126.303L459.618 126.725L461.295 129.736L463.516 131.398L464.988 133.959L469.281 135.812L470.03 137.025L471.107 137.829L470.275 138.66L468.981 138.673L467.482 140.444L465.219 141.343L464.047 140.267L460.259 139.027L458.991 139.245L458.61 140.09L458.051 140.226L457.806 139.395L458.733 138.782L458.46 137.869L457.656 137.365L456.484 137.474L455.925 137.924L455.339 140.213L453.377 141.657L451.619 141.793L451.142 142.243L450.719 147.61L450.174 148.264L448.893 148.305L446.222 149.49L444.995 152.065L444.464 152.501L443.074 151.411L441.52 151.711L440.294 150.744L438.822 147.038L438.699 145.867L439.258 143.455L441.098 139.327V137.897L442.147 138.006L442.542 137.202L442.965 133.523L442.42 130.826L439.83 126.821L438.917 126.33L437.146 126.167L436.451 124.355L435.292 123.156L433.739 122.597L433.207 121.603L432.948 119.709L433.371 118.183L434.652 116.78L435.102 115.486L435.142 111.876L434.475 108.838L435.728 106.862L437.255 106.017L440.362 105.936L441.193 104.696L443.088 103.701L444.246 101.086L445.363 101.862L446.127 103.184L447.34 102.87L447.462 100.977L448.58 99.8323L449.738 97.5027ZM469.798 13.8128L469.676 12.1371L471.42 10.4342L474.241 12.0826L474.936 14.5485L472.47 16.5784L470.603 15.1207L469.798 13.8128ZM426.352 124.396L425.957 127.42L425.426 128.278L424.54 128.592L424.513 129.082L423.681 128.347L423.763 126.017L423.191 124.505L424.199 123.02L426.802 122.502L427.429 121.794L427.47 122.665L426.352 124.396ZM467.713 6.16998L467.359 9.69849L466.828 9.8756L465.628 5.82939L465.928 4.0447L465.097 3.58149L465.219 2.58697L466.105 3.74498L467.005 3.54062L466.977 2.73683L467.441 3.10467L467.918 4.16731L467.713 6.16998Z" fill="#646464" fill-opacity="0.18"/>
<path d="M241.461 396.364L240.398 395.41L238.422 397.794L238.845 399.02L239.88 398.748L240.316 399.17L240.112 399.456L239.158 400.178L238.776 399.797L236.678 400.151L236.432 399.347L237.986 398.489L237.645 397.862L237.836 397.004L238.558 396.405L238.667 395.083L237.7 392.726L237.904 391.405L236.119 390.519L233.012 391.936L232.985 392.44L230.627 394.634L230.341 395.328L230.709 395.533L230.259 395.792L228.515 395.369L227.833 393.38L227.942 392.522L226.688 391.459L226.361 389.607L226.593 388.503L226.184 387.577L225.516 386.718L225.925 385.846L226.743 385.601L227.601 384.675L227.888 382.25L228.842 380.847L228.092 380.383L228.501 379.729L230.477 378.558L230.899 377.005L231.976 377.155L232.521 377.808L232.807 377.209L234.497 377.032L235.206 377.604L235.901 377.018L235.805 376.678L236.364 376.487L236.705 377.046L238.926 377.223L240.93 375.779L243.328 375.588L243.315 374.403L242.374 374.116L241.856 373.476L243.015 372.114L244.636 371.773L247.907 367.237L248.452 367.141L250.02 368.095L251.096 367.25L252.432 368.326L254.367 367.754L255.157 368.054V368.408L258.019 367.972L258.592 368.653L259.968 370.315L259.341 371.964L259.327 374.144L261.508 376.868L261.113 378.394L261.671 380.983L261.658 382.863L263.307 385.111L263.47 387.481L262.857 389.171L261.658 389.293L261.603 390.519L261.154 390.942L257.883 390.247L257.828 389.961L258.605 389.702L258.551 388.884L257.787 388.598L257.883 389.184L256.983 389.593L254.735 390.506L253.726 390.383L253.413 391.718L251.696 392.25L249.951 391.963L248.384 392.318L247.907 393.094L247.158 393.448L246.817 392.685L245.849 392.794L245.495 393.966L244.882 393.762L244.827 395.097L243.246 395.206L241.461 396.364Z" fill="#646464" fill-opacity="0.18"/>
<path d="M454.522 327.387L454.385 330.276L455.598 334.731L459.251 342.224L461.472 345.616L462.589 346.256L462.644 346.869L459.237 344.771L457.724 342.687L456.048 342.333L454.508 341.011L453.268 341.066L451.796 340.357L449.057 341.066L447.885 342.183L446.795 341.869L445.99 342.414L444.818 342.264L443.428 342.823L442.638 341.842L439.285 340.671L437.868 339.717L437.596 338.75L436.614 338.423L434.393 335.684L433.943 334.54L433.371 334.499L432.839 334.976L432.308 334.84L431.122 332.169L431.354 330.957L432.349 330.875L434.597 329.69L435.347 327.387L436.887 327.769L437.05 326.57L438.413 325.93L438.59 325.317L440.716 325.208L441.071 325.031L441.139 324.322L442.052 324.649L442.611 324.022L443.21 323.995L443.592 324.527L444.505 324.24L444.791 322.646L446.045 320.126L446.018 317.66L445.241 315.004L445.623 314.486L446.917 314.2L447.053 313.778L446.195 312.415L446.495 310.644L446.113 309.295L446.236 306.584L446.985 306.625L448.021 308.015L449.139 308.355L449.588 309.936L451.142 310.508L451.728 311.284L453.718 309.377L455.244 308.71L454.617 306.938L455.08 306.312L455.857 307.715L460.532 309.132L460.586 309.159L460.627 309.173L460.872 310.045L460.014 310.276L459.346 311.57L457.738 317.02L456.784 318.614L455.721 321.706L455.939 325.63L454.522 327.387Z" fill="#646464" fill-opacity="0.18"/>
<path d="M351.235 301.285L351.153 299.527L350.717 299.337L350.226 299.8L349.817 299.418L350.649 296.244L351.194 295.767V293.492L351.671 292.974L353.633 291.38L355.173 290.686L356.713 291.067L360.665 289.051L361.238 288.261L362.573 287.607L364.304 287.375L366.103 286.408L367.507 286.585L368.147 287.484L367.82 288.124L368.379 289.228L367.547 289.623L366.171 289.568L365.449 290.059L365.067 291.653L365.885 293.083L364.985 294.418L362.546 294.35L361.333 295.031L360.556 297.061L358.975 298.233L358.212 297.511L357.544 297.402L357.776 296.571H357.299L355.31 299.527L356.045 299.841L355.814 300.685L355.119 300.849L355.282 301.435L354.928 301.966L355.691 302.088L356.454 301.312L357.994 302.824L359.016 301.939L359.289 301.012H360.052L360.107 305.767L358.417 305.631L357.435 305.985L355.528 307.851L354.71 312.606L353.96 313.491L353.742 314.827L354.056 315.453L353.02 317.129L353.279 318.668L353.906 319.459L352.884 323.491L353.497 326.052L353.061 326.625L353.252 327.823L353.592 328.614L354.628 329.199L354.683 329.731L353.402 332.02L352.584 332.333L352.884 333.327L352.202 334.812L349.627 335.466L349.3 334.622L346.765 332.633L344.38 333.205L343.739 333.137L342.853 332.101L341.627 332.278L341.068 331.761L340.727 330.058L338.438 327.892L339.937 325.984L341.191 325.548L343.112 323.696L349.204 315.48L350.69 312.797L352.502 307.62L352.557 304.486L351.262 302.47L351.235 301.285Z" fill="#646464" fill-opacity="0.18"/>
<path d="M490.418 226.423L490.99 226.641L491.058 227.254L489.927 227.199L490.649 227.922L491.331 227.908L491.78 228.834L490.377 229.42L489.382 229.379L489.396 229.87L490.063 230.238L490.813 230.074L490.826 230.401L489.927 231.123L488.919 231.082L488.564 231.45L490.84 232.867L489.668 233.276L487.951 232.554L488.237 233.875L489.627 234.229L487.965 234.474L488.973 235.251L488.605 235.632L487.12 235.523L486.479 235.864L485.907 235.224L485.961 234.447L485.484 234.216L485.566 235.047L485.157 235.646L486.098 236.818L485.512 236.899L485.661 238.139L485.021 238.602L484.04 237.295L484.38 236.573L484.108 236.314L482.854 236.436L483.072 237.458L481.478 236.79L479.515 236.613L479.188 237.322L479.338 239.747L478.411 240.7L478.548 241.395L477.866 244.038L474.527 242.676L473.301 243.861L473.069 244.815L472.361 245.06L469.948 243.684L469.308 242.199L470.112 241.45L469.771 240.769L468.79 240.496L465.778 240.837L465.029 239.733L463.066 239.079L461.404 237.839L460.109 238.03L460 236.464L461.077 234.597L460.886 234.052L459.564 233.534L459.945 232.213L459.577 231.913L460.218 230.782L461.036 230.374L459.877 229.774L460.327 228.33L458.801 227.281L458.078 226.259L458.283 225.006L457.465 223.303L456.934 223.181L457.002 222.295L457.615 222.131L457.547 221.028L458.61 219.87L459.196 218.044L458.91 217.063L459.482 216.914L460.313 215.742L460.681 215.783L461.376 214.162L461.199 212.69L460.3 211.096L460.831 210.906L461.949 208.903L460.422 208.004L460.327 206.56L461.445 205.947L462.112 206.601L462.875 206.355L462.03 202.949L462.099 199.298L462.807 198.672L463.012 196.546L462.467 195.879L463.57 194.367L464.402 194.067L464.947 193.29L465.574 194.217L466.855 194.23L468.218 193.168L468.845 193.14L468.899 192.16L469.907 191.478L471.979 190.961L474.65 188.931L475.577 190.402L477.921 188.903L478.847 188.781L480.537 189.83L481.75 188.89L481.9 187.759L483.794 186.914L484.435 186.179L486.302 188.958L488.401 193.672L487.065 195.143L488.959 195.961L489.586 196.832L489.423 197.173L488.755 197.187L488.264 197.922L488.414 199.257L488.864 199.911L489.559 200.143L490.227 201.355L491.167 201.519L491.712 202.473L491.276 204.652L492.257 206.301L492.571 210.361L491.998 212.663L492.598 212.758L491.44 216.26H491.78L493.593 213.807L493.62 216.559L494.438 216.668L494.833 217.622L494.629 218.113L493.784 218.222L492.612 219.815L491.658 220.156L492.244 221.355L493.825 219.815L494.247 219.747L494.52 220.251L493.934 222.063L492.407 222.418L491.194 223.235L490.091 224.856L490.554 225.333L491.631 224.761L492.23 225.497L489.913 225.892L490.418 226.423Z" fill="#646464" fill-opacity="0.18"/>
<path d="M254.176 432.766L253.849 434.169L252.473 433.693L251.655 434.292L251.055 436.458L251.519 438.72L249.965 439.374L249.938 440.872L251.341 441.73L251.791 443.747L251.369 443.815L249.079 441.771L248.03 441.622H247.553L245.904 443.038L245.1 442.548L244.718 442.82L243.478 441.376L241.311 442.575L241.189 441.431L242.115 440.055L242.047 439.564L243.628 437.848L243.301 437.33L242.17 437.425L242.238 436.908L242.797 436.771L242.81 434.96L242.115 433.257L242.388 432.003L241.352 430.832L240.984 429.633L241.447 429.129L242.878 430.736L243.137 430.641L244.296 428.761L245.113 428.529L245.781 426.268L247.43 425.696L248.643 424.783L248.589 424.006L247.621 423.311L246.149 420.341L247.144 419.783L250.101 420.137L251.737 419.674L253.018 417.739L252.582 416.649L253.427 414.143L254.558 413.625L254.639 412.876L255.662 411.65L256.547 409.633L257.283 410.083L257.992 409.824L258.796 408.448L264.711 408.502L266.032 406.868L267 407.276L267.641 406.827H269.085L269.589 407.562L271.415 408.271L273.882 408.039L274.768 409.265L275.845 409.701L276.676 409.429L277.248 408.325L277.78 408.148L278.12 408.775L279.074 408.543L279.769 410.26L279.906 412.985L282.59 413.053L282.904 414.143L282.263 414.878L282.4 415.519L283.463 417.14L286.338 417.44L283.776 422.317L282.89 427.18L281.882 425.532H281.051L280.887 424.538L279.551 423.175L278.965 421.772L277.044 420.846L276.349 419.374L271.947 418.557L271.334 417.807L267.041 418.489L266.7 419.129L263.525 420.723L263.552 421.595L260.568 422.153L259.818 423.611L259.477 422.821L258.224 423.23L258.333 424.074L257.965 424.456L258.251 425.055L257.787 426.145L258.251 426.022L258.346 426.745L257.897 427.003L258.155 427.766L256.929 429.047L257.27 430.041L256.943 430.246L256.847 429.701L256.248 429.742L254.176 432.766Z" fill="#646464" fill-opacity="0.18"/>
<path d="M272.124 393.476L275.04 391.814L275.286 390.506L278.12 391.459L280.314 391.555L281.773 389.92L282.495 390.438L282.236 391.745L282.481 392.25L282.972 392.331L283.149 391.786L283.762 391.664L285.275 391.977L285.261 392.536L284.73 392.958L284.989 393.612L286.529 393.966L287.646 394.824L288.178 394.743L290.045 396.173L289.827 397.481L289.254 397.781L287.769 396.991L287.387 397.399L285.166 397.045L282.849 397.29L281.841 398.08L281.923 398.653L281.486 399.116L279.797 399.307L278.202 400.546H277.562L276.39 399.225L274.509 399.565L273.473 399.96L273.092 400.642L272.301 400.383L270.938 401.527L270.748 402.222L269.903 402.522L267.341 401.514L268.281 400.832L268.731 396.636L266.673 394.988L266.768 394.538L267.191 394.416L269.358 395.506L270.107 395.274L272.124 393.476Z" fill="#646464" fill-opacity="0.18"/>
<path d="M190.288 463.501L188.584 462.615L188.23 461.948L187.453 461.771L186.908 460.804L186.172 461.839L184.932 462.398L183.787 462.384L182.97 463.133L181.552 462.915L181.116 462.071L180.38 461.716L180.626 460.245L182.043 458.705L183.746 455.122L186.009 452.847L185.845 451.539L185.327 451.499L185.232 450.886L186.145 450.926L186.322 450.627L185.096 449.877L188.421 446.58L188.107 446.308L186.595 446.935L183.024 447.071L183.038 446.553L186.745 444.06L186.717 441.989L187.031 441.512L185.872 439.932L184.823 439.687L184.646 438.665L182.656 437.739L182.22 435.355L181.443 434.701L184.36 434.81L184.114 433.352L186.322 431.322L188.366 431.554L189.089 429.592L189.307 430.137L190.411 430.082L191.324 430.913L193.409 431.622L193.395 432.017L194.581 432.248L195.398 433.325L196.257 433.393L196.802 434.251L197.32 434.265L197.988 433.406L198.233 432.248L197.102 430.6L197.279 429.592L198.669 428.829L200.591 429.183L202.008 430.668L202.267 432.262L203.439 433.325L204.243 435.532L204.529 438.624L206.437 440.354L204.72 440.572L203.957 441.935L203.916 443.161L202.594 444.033L202.321 445.3H201.517L201.027 446.036L200.686 447.956L200.059 448.42L199.092 448.134L198.696 449.114L198.151 449.346L197.811 451.226L198.151 452.766L198.724 453.692L199.323 453.815L199.582 455.381L200.618 456.308L199.759 457.711L198.996 457.752L198.724 458.556L200.291 460.381L200.523 461.621L199.323 461.771L197.811 461.28L196.857 462.902L196.311 463.079L195.153 462.602L193.79 463.569L190.288 463.501ZM182.084 450.177L182.724 450.082L182.411 451.826L181.675 452.861L182.057 452.984L181.293 454.142L180.162 454.659L178.541 453.951L177.314 454.06L177.232 453.542L176.537 453.311L176.006 453.855L176.687 454.4L176.755 455L176.169 456.349L173.634 458.188L173.321 459.359L171.876 460.327L171.945 461.635L171.304 461.866L170.405 460.368L170.745 459.182L169.75 458.896L170.636 456.962L170.037 456.172L170.009 455.191L171.631 451.907L171.876 450.368L173.771 449.482L175.692 449.278L176.019 449.659L175.815 450.913L176.169 452.316L178.377 451.213L179.195 450.232L180.38 449.864L181.157 450.368L182.084 450.177ZM175.038 459.877L174.929 458.91L175.72 458.106L175.42 459.414L176.319 461.73L175.692 462.111L175.052 463.801L173.662 462.684L173.771 461.662L173.307 461.171L173.498 459.986L175.038 459.877ZM182.765 449.046L182.043 449.414L181.552 449.196L181.253 448.011L182.561 446.798L183.011 447.997L182.574 448.57L182.765 449.046Z" fill="#646464" fill-opacity="0.18"/>
<path d="M410.244 357.4L410.803 355.861L413.242 354.73L413.869 353.845L414.837 353.708L415.505 353L415.968 352.046L415.995 348.49L416.813 348.668L417.44 349.417L418.271 349.376L419.075 350.725L420.247 350.507L423.204 351.474L425.044 354.049L425.453 354.008L425.712 351.256L424.635 350.411L424.935 350.098L425.603 350.738L426.639 349.499L430.291 351.229L430.741 352.142L431.395 352.455L431.408 352.973L432.281 352.714H432.294H432.335H432.362L432.935 353.708L430.904 354.771L429.896 354.689L429.337 355.248L429.855 355.861L430.4 355.697L430.945 356.092L430.386 357.291L429.909 356.951L429.269 357.06L429.133 357.591L429.8 357.945L430.168 359.744L429.705 360.697L431.013 361.76L432.471 362.073L431.885 363.517L430.918 363.64L430.032 364.389L430.196 365.193L430.659 365.316L430.604 365.901L428.778 365.861L428.983 364.253L428.533 362.645L427.674 361.719L427.756 360.861L424.295 360.016L420.956 360.479L418.067 361.378L416.486 362.645L416.254 365.493L415.382 365.97L413.31 365.683L413.133 364.757L412.179 364.021L411.852 361.964L412.629 361.106L412.997 359.798L412.534 357.714L412.329 357.387L410.244 357.4Z" fill="#646464" fill-opacity="0.18"/>
<path d="M177.75 484.754L179.29 482.179L179.658 478.991L179.385 477.533L175.174 473.187L176.714 469.509L176.469 468.024L175.474 466.117L176.251 464.645L175.27 463.855L175.556 463.12L176.701 462.534L177.409 462.547L178.336 463.174L179.808 463.038L180.408 461.73L181.144 462.084L181.58 462.929L182.997 463.147L183.815 462.398L184.959 462.411L186.199 461.853L186.935 460.817L187.481 461.784L188.257 461.962L188.612 462.629L190.315 463.515L189.661 464.877L190.547 465.19L191.664 466.267L192.237 468.201L193.709 468.678L194.717 469.836L194.553 471.553L194.281 471.648L194.513 472.847L195.398 472.983L195.807 473.473L197.279 473.651L197.034 474.482L198.11 474.741L198.328 476.879L199.078 478.201L199.759 477.411L200.727 478.283L202.035 478.133L202.676 478.528L203.085 479.781L202.744 480.626L203.003 481.77L202.158 482.669L201.994 483.65L200.4 483.078L199.051 484.141L198.097 485.626L197.988 486.716L200.4 487.547L200.427 488.133L199.541 489.1L199.787 489.345L200.863 488.964L201.027 489.304L199.296 490.844L197.92 490.884L197.633 492.029L196.557 493.623L194.158 494.958L192.196 495.299L188.462 498.091L188.952 496.239L188.257 495.694L190.71 493.8L191.31 492.274L190.969 491.293L191.923 490.081L192.291 487.451L191.01 484.645L190.383 483.827L189.47 483.446L189.62 480.803L187.78 480.844L186.595 479.727L187.521 478.487L188.952 478.215L189.961 479.059L189.811 480.19L191.255 480.313L192.795 477.506L192.128 476.007L188.489 474.945L187.344 475.858L187.044 477.479L185.777 479.304L185.981 480.04L185.027 482.043L184.7 482.002L184.482 483.337L184.837 485.135L185.927 487.942L187.385 489.277L188.598 489.59L187.889 491.988L186.486 492.996L185.641 492.329L184.605 492.724L184.278 492.329L184.36 491.211L183.051 490.053L180.162 490.081L178.99 489.577L176.455 490.135L176.21 488.119L175.338 487.806L176.319 487.056L174.22 485.04L174.956 484.141L175.311 484.795L176.714 485.49L177.75 484.754ZM184.074 514.671L186.009 515.53L185.927 515.979L187.794 516.483L188.707 517.342L188.189 519.739L186.404 521.538L184.714 521.946L182.411 521.565L182.057 520.489L181.757 520.734L181.77 519.794L181.157 519.004L180.789 517.451L180.844 516.81L182.125 516.701L183.133 515.461L183.147 514.821L183.896 514.944L184.046 514.44L184.074 514.671ZM196.148 511.034L195.903 508.227L197.02 506.456L197.429 506.47L197.633 504.644L199.078 502.914L199.773 504.467L199.446 505.23L199.664 507.383L198.969 508.364L199.078 509.93L198.424 510.789L198.478 511.429L197.538 512.001L196.53 514.072L196.72 514.453L196.421 514.794L197.007 515.502L196.693 516.143L197.061 516.62L196.611 516.783L196.598 517.41L195.494 517.396L194.131 518.322L193.722 517.532L193.954 516.333L193.49 514.494L194.145 514.508L196.148 511.034ZM163.264 477.86L162.214 478.501L161.655 478.106L161.478 477.343L161.983 477.057L162.514 475.531L164.313 474.863L164.899 473.174L165.39 473.405L165.321 474.073L164.463 475.64L163.645 475.885L163.795 476.443L163.277 477.002L163.632 477.438L163.264 477.86ZM166.207 471.73L165.771 470.967L166.248 470.326L166.984 470.435L167.502 471.103L168.66 470.844L168.824 471.362L168.783 472.179L167.543 472.588L166.848 472.22L166.957 471.771L166.412 471.321L166.207 471.73ZM176.864 514.453L177.805 515.121L177.791 515.475L177.246 515.38L176.333 515.911L175.815 515.298L175.924 514.644L175.243 514.821L174.52 513.799L176.864 514.453Z" fill="#646464" fill-opacity="0.18"/>
<path d="M315.012 369.062L315.243 368.34L315.748 368.054L315.352 366.337L314.03 365.67L312.858 365.915L312.804 364.907L312.504 364.825L311.4 364.771L310.828 365.261L310.065 364.934L310.405 364.185L309.233 363.054L309.206 362.005L307.816 361.964L306.767 362.605L304.968 361.051L302.937 360.22L302.91 358.504L303.414 357.141L304.968 357.891L306.208 357.182L306.222 353.599L305.772 352.864L303.959 353.763L302.978 353.518L302.692 352.687L301.52 351.597L301.493 348.845L301.847 349.253L303.169 349.226L303.973 348.817L304.586 347.755L305.69 347.837L308.307 345.997L310.882 345.18L312.354 346.106L313.254 347.741L311.795 349.117L311.537 350.125L310.051 351.924L310.133 352.741L310.542 352.727L311.346 351.406L312.177 351.869L312.354 352.101L311.482 352.85L313.322 353.681L313.662 353.232L313.853 355.112L314.507 354.458L315.652 354.744L315.72 354.049L314.003 352.973L315.162 352.046L316.429 351.896L316.633 351.106L317.11 351.093L317.124 351.869L317.683 352.21L317.124 353.422L317.833 353.994L317.437 355.37L319.223 357.019L319.4 358.204L321.758 358.463L323.802 359.267L325.669 358.913L327.277 361.419L327.849 361.406L327.331 363.367L327.917 366.242L327.495 368.613L327.032 368.953L327.427 370.547L328.64 372.604L328.313 374.062L329.28 374.702L330.275 374.185L330.452 375.383L330.875 375.315L331.284 375.819L331.829 375.615L332.66 376.433L332.306 376.787L332.51 377.345L333.123 378.98L332.66 380.002L331.87 379.893L331.202 378.98L329.853 378.966L329.962 378.476L328.953 380.016L327.958 380.125L325.342 379.416L324.633 377.754L325.015 376.909L323.625 375.343L323.202 373.899L321.512 372.332V371.487L320.49 371.46L320.136 372.386L320.654 372.958L319.577 373.313L318.637 372.318L318.296 372.468L318.201 370.888L315.257 370.07L315.012 369.062Z" fill="#646464" fill-opacity="0.18"/>
<path d="M350.567 393.544L350.308 393.721L351.208 392.086L350.431 391.637L349.531 393.557L348.032 394.566L347.528 394.634L347.16 393.557L346.779 393.68L346.465 394.824L346.342 393.884L345.389 393.871L345.77 395.151L345.47 395.478L341.45 396.459L340.891 396.309L340.019 397.059L339.27 398.435L339.747 399.266L340.319 399.184L339.842 400.124L339.011 400.26L338.506 399.525L337.948 399.674L338.193 400.11L337.239 400.437L337.484 400.873L338.411 400.737L338.425 401.663L339.406 402.168L339.174 403.802L338.275 403.925L337.212 405.464L335.931 405.71L335.372 406.609L334.541 406.568L333.096 409.129L332.115 411.854L330.357 411.486L328.04 408.843L328.135 406.227L329.635 403.884L331.284 403.353L332.415 401.827L334.622 402.168L334.432 400.356L334.759 399.988L334.922 397.604L334.418 396.677L335.413 394.824L334.472 393.258L335.386 392.767L333.805 390.247L334.486 388.953L337.457 388.517L337.989 387.236L337.593 385.928L336.707 386.282L336.081 384.906L334.963 385.274L333.546 384.579L333.191 384.021L333.791 382.659L333.723 381.841L334.241 381.133L333.151 378.994L332.537 377.345L334.363 376.596L334.268 375.901L335.317 375.043L335.208 374.702L334.363 374.634L334.268 374.294L334.909 373.762L335.345 374.28L336.735 374.253L338.561 375.152L341.736 373.612L342.022 372.359L343.099 370.86L343.154 368.98L344.148 365.575L343.181 364.58L343.072 363.422L346.084 362.128L348.4 365.52L349.872 365.683L350.308 367.332L351.63 369.471L350.594 369.743L349.341 370.683L348.85 372.073L349.204 373.599L346.574 377.618L345.811 379.838L345.893 380.738L346.806 381.133L346.288 382.945L349.15 383.776L349.531 384.702L351.276 385.342L352.748 386.446L354.356 386.487L354.656 387.372L355.419 387.549L355.133 387.931L355.351 388.312L356.318 388.135L356.7 388.53L356.809 389.525L355.269 390.438L355.419 390.887L356.277 391.078L355.419 392.045L355.814 392.686L355.187 394.416L353.865 394.784L351.998 394.143L353.47 393.925L354.206 394.293L354.301 393.408L353.647 393.244L353.279 393.517L351.289 393.053L350.567 393.544Z" fill="#646464" fill-opacity="0.18"/>
<path d="M467.836 258.697L467.277 259.665L467.713 260.005L468.177 259.801L468.422 260.686L466.705 261.708L464.375 266.64L463.829 271.681L464.266 274.337L463.325 274.092L462.344 274.46L462.385 277.416L462.208 277.716L460.054 277.634L460.695 278.165L460.491 278.383L458.842 278.016L457.983 277.334L457.601 276.313L457.847 274.759L457.084 274.133L455.966 273.751L452.355 274.119L451.85 272.634L450.297 271.694L448.757 272.471L446.863 271.572L446.781 268.874L449.125 268.86L450.474 268.111L450.733 266.722L452.246 264.569L451.932 262.893L452.15 261.504L453.581 259.705L453.363 258.888L454.849 257.335L455.68 255.155L455.407 254.201L454.59 253.67L454.222 252.43L454.74 251.545L454.699 250.809L453.867 248.943L454.004 248.629L454.903 249.106L455.448 248.97L456.034 247.403L455.734 246.082L456.661 244.583L455.53 243.97L455.271 242.526L453.826 241.136L454.14 240.66L454.508 240.905L456.906 240.414L459.141 238.275L460.109 238.044L461.404 237.853L463.066 239.093L465.029 239.747L465.778 240.85L468.79 240.51L469.771 240.782L470.112 241.463L469.308 242.213L469.948 243.698L472.361 245.074L473.069 244.828L473.301 243.875L474.527 242.69L477.866 244.052L478.548 241.409L478.411 240.714L479.338 239.76L479.188 237.335L479.515 236.627L481.478 236.804L483.072 237.472L484.231 241.354L483.713 241.191L483.018 240.074L482.077 240.346L481.955 242.621L480.101 243.766L479.897 244.529L481.287 245.455L481.219 247.104L480.251 246.232L478.875 247.512L478.057 247.757L478.016 248.738L480.36 249.024L480.197 249.951L479.215 250.823L478.575 250.891L478.616 251.558L479.229 251.831L479.447 252.567L480.101 252.335L480.933 252.825L480.537 254.12L479.897 253.234L479.406 253.384V255.632L478.139 255.605L478.629 256.041L478.793 257.321L480.606 257.103L480.646 257.498L479.747 257.662L480.687 260.114L480.224 261.449L478.234 260.005L478.589 259.297L477.321 258.929L477.675 258.316L478.452 258.016L477.716 257.144L476.176 257.662L475.945 256.763L475.577 256.613L474.255 256.531L472.129 257.144L470.425 258.289L470.589 259.542L469.853 259.774L469.758 257.893L468.504 257.73L467.809 258.152L467.836 258.697Z" fill="#646464" fill-opacity="0.18"/>
<path d="M211.112 465.19L209.749 469.795L209.544 471.771L210.675 473.365L209.912 475.49L209.994 478.242L208.917 478.868L207.691 481.716L208.018 482.806L207.268 483.269L207.527 484.577L206.464 485.571L206.928 486.539L206.233 486.579L205.524 485.953L204.325 486.062L203.398 484.005L201.967 483.65L202.131 482.669L202.976 481.77L202.717 480.626L203.057 479.781L202.649 478.528L202.008 478.133L200.7 478.283L199.732 477.411L199.051 478.201L198.301 476.879L198.083 474.741L197.007 474.482L197.252 473.651L195.78 473.473L195.371 472.983L194.485 472.847L194.254 471.648L194.526 471.553L194.69 469.836L193.681 468.678L192.209 468.201L191.637 466.267L190.52 465.19L189.634 464.877L190.288 463.515L193.79 463.583L195.153 462.615L196.312 463.092L196.857 462.915L197.811 461.294L199.323 461.784L200.523 461.635L200.291 460.395L198.724 458.569L198.996 457.765L199.759 457.725L200.618 456.321L199.582 455.395L199.323 453.828L198.724 453.706L198.151 452.779L197.811 451.24L198.151 449.36L198.696 449.128L199.092 448.147L200.059 448.433L200.686 447.97L201.027 446.049L201.517 445.313H202.321L202.594 444.047L203.916 443.175L203.957 441.948L204.72 440.586L206.437 440.368L207.091 441.158L207.609 441.172L210.362 440.218L211.493 441.39L211.248 442.03L211.507 442.425L212.733 442.834L213.442 442.235L216.481 442.262L217.149 441.472L217.353 440.463L218.443 440.259L220.678 441.104L220.324 443.229L221.087 443.243L220.774 443.951L218.648 445.273L217.844 447.548L216.372 448.27L215.827 449.455L216.14 450.313L217.135 451.035L216.236 451.771L215.009 452.003L215.268 452.752L216.072 453.229L214.818 453.719L213.224 457.507L211.112 465.19Z" fill="#646464" fill-opacity="0.18"/>
<path d="M391.247 298.71L393.768 297.048L397.257 293.451L400.405 291.68L403.526 286.435L404.67 285.645L405.597 284.037L407.478 277.757L408.718 276.258L414.264 272.266L417.508 271.408L419.838 269.896L422.223 267.335L423.913 264.61L424.472 262.444L424.649 257.158L427.17 252.049L429.637 253.357L431.654 253.793L431.981 254.188L431.436 256.899L432.526 258.438L435.034 259.092L436.601 260.768L435.524 262.934L433.657 264.106L431.504 263.806L430.795 264.923L431.013 266.708L430.55 267.825L431.027 268.86L430.087 269.555L429.283 273.874L430.182 275.454L431.081 275.89L431.695 275.713L432.308 276.762L430.155 279.092L429.187 280.863L429.364 281.19L427.279 282.607L427.238 283.601L427.811 285.004L427.688 286.108L428.206 287.225L427.552 287.538L425.835 287.239L425.33 287.566L424.799 287.13L424.158 287.184L423.6 287.402L423.164 289.023L422.237 288.696L421.487 289.092L418.557 289.419L417.781 290.672L418.694 291.435L418.503 293.056L418.23 294.636L416.908 296.544L417.712 297.634L418.639 297.852L419.28 299.119L418.803 300.862L419.375 302.756L419.075 303.819L419.225 305.644L418.898 306.216L418.585 305.753L417.331 305.658L417.181 304.622L415.082 302.511L414.919 303.819L413.801 304.813L411.58 305.195L411.948 307.824L411.811 308.165L410.667 308.028L410.271 309.323L410.612 309.922L408.582 310.767L407.696 310.726L407.846 312.088L406.769 313.001L405.134 312.402L404.643 313.26L404.302 313.042L404.139 312.388L403.621 312.047L404.33 310.889L404.016 310.263L404.207 309.268L402.871 308.655L401.468 307.17L401.413 305.058L400.841 303.778L399.737 303.464L396.248 304.568L395.253 306.693L393.632 307.415L393.277 309.663L392.937 309.718L392.541 308.859L391.383 308.778L390.007 309.677L388.317 309.704L387.049 311.148L385.755 310.208L386.504 308.451L386 307.688L383.465 307.156L382.089 307.279L382.198 309.036L381.135 310.821L379.268 312.252L378.464 309.963V308.914L377.932 308.096L377.891 306.475L376.774 306.135L375.82 305.031L383.206 302.334L385.673 300.522L386.845 300.113L388.099 298.614L389.611 298.996L391.247 298.71ZM398.061 264.964L397.257 266.681L397.516 268.138L398.47 268.547L400.664 267.662L400.936 268.002L399.001 273.356L395.253 276.394L393.754 276.476L392.378 277.307L391.369 277.103L391.083 276.462L392.868 275.686L393.332 274.542L393.196 273.384L394.708 272.021L395.022 270.809L394.681 271.367L393.972 270.577L393.141 270.441L392.378 271.871L391.819 271.544L391.833 270.345L391.519 270.141L391.996 269.664L392.037 267.798L393.373 266.095L394.327 263.929L395.39 263.411L396.316 262.062L397.284 261.817L397.911 259.719L399.396 259.365L398.797 263.738L398.061 264.964Z" fill="#646464" fill-opacity="0.18"/>
<path d="M373.857 361.147L373.844 360.425L374.988 359.539L374.634 357.809L375.82 357.414L374.852 356.079L375.738 355.125V353.885L374.961 353.15L373.503 353.586L373.08 352.836L373.176 351.338L372.644 350.725L373.23 348.981L372.167 348.027L371.077 345.589L369.401 345.085L369.333 344.39L367.915 344.376L367.52 343.845L367.67 343.109L368.474 342.769L368.951 341.324L370.518 340.848L370.968 341.297L371.541 341.202L372.249 339.758L372.849 339.622L373.353 338.368L374.716 337.333L375.247 335.194L374.266 334.853L373.639 334.172L373.653 333.069L374.675 332.101L374.743 331.393L374.225 330.644L376.12 328.178L376.242 327.115L376.12 326.393L374.716 325.494L374.539 324.799L375.765 323.627L376.338 322.524L376.31 321.502L376.842 320.78L377.673 320.548L377.51 319.881L377.223 319.935L377.373 318.886L378.981 317.933L379.254 312.238L381.121 310.808L382.184 309.023L382.075 307.265L383.451 307.143L385.986 307.674L386.49 308.437L385.741 310.208L387.036 311.148L388.303 309.704L389.993 309.663L391.369 308.778L392.528 308.859L392.923 309.704L393.25 309.65L393.604 307.402L395.226 306.68L396.221 304.541L399.723 303.437L400.827 303.751L401.399 305.031L401.454 307.143L402.858 308.628L404.193 309.241L404.002 310.235L404.316 310.848L403.607 312.02L404.125 312.347L404.289 313.001L402.176 314.132L399.737 314.622L399.723 316.107L398.415 316.325L397.107 317.933L397.134 319.281L396.316 321.543L396.398 323.314L398.102 324.322L398.688 324.418L398.974 323.995L400.173 324.336L400.773 323.791L401.727 323.655L402.858 323.995L403.253 325.562L403.158 327.578L401.754 328.505L402.067 330.017L402.64 330.616L402.599 331.72L401.986 332.374L401.359 331.924L401.141 332.156L401.74 333.191L402.626 333.3L403.008 334.213L402.558 334.69L403.076 337.101L403.907 337.36L404.398 338.068L404.888 337.946L404.752 338.572L405.461 340.003L405.188 340.711L404.643 340.698L403.648 341.978L402.326 341.992L401.59 340.439L399.192 340.398L398.892 340.957L398.238 341.079L397.584 340.357L397.597 339.444L395.648 338.654L393.236 342.346L392.255 341.502L391.983 341.665L390.661 344.349L391.86 345.521L390.497 347.019L391.492 349.431L390.702 351.665L390.211 351.474L389.448 352.36L389.897 352.714L389.339 353.477L389.911 355.261L388.903 355.616V356.528L389.625 357.441L389.434 358.422L387.185 359.28L385.537 360.656L383.792 361.528L383.506 362.114L382.811 362.128L382.184 363.395L380.726 363.545L379.581 363.899L379.281 363.367L377.169 362.959L375.997 363.722L374.293 364.076V363.381L373.435 362.278L373.857 361.147Z" fill="#646464" fill-opacity="0.18"/>
<path d="M333.123 378.98L334.214 381.119L333.696 381.827L333.764 382.631L333.178 384.007L333.532 384.566L334.936 385.247L336.053 384.879L336.694 386.255L337.58 385.887L337.975 387.195L337.443 388.489L334.472 388.925L333.791 390.22L335.358 392.74L334.459 393.23L335.399 394.811L334.418 396.664L334.922 397.59L334.745 399.974L334.418 400.342L334.609 402.154L332.401 401.813L331.284 403.326L329.635 403.857L328.135 406.2L325.396 406.663L324.497 406.105L323.597 406.091L322.03 407.018L321.73 406.241L321.226 406.064L322.194 403.571L321.812 402.876L321.022 402.59L321.103 401.881L319.55 400.574L319.713 399.838L321.758 397.862L322.275 397.072L322.262 396.105L322.998 395.737L324.102 396.241L324.633 395.424L324.347 394.538L323.134 393.857L322.861 391.514L322.316 390.587L323.148 390.083L323.407 388.585L323.298 386.991L322.575 385.288L323.352 384.062L323.066 383.449L322.548 383.353L323.243 380.125L323.938 379.525L324.156 377.672L324.633 377.754L325.342 379.416L327.958 380.125L328.953 380.016L329.962 378.476L329.853 378.966L331.202 378.98L331.87 379.893L332.66 380.002L333.123 378.98Z" fill="#646464" fill-opacity="0.18"/>
<path d="M177.655 439.006L178.949 438.815L179.617 439.305L180.816 441.635V443.134L179.985 444.224L180.298 444.646L180.012 445.314L177.818 446.131L176.919 447.289L175.188 447.929L175.229 447.003L174.139 446.335L174.248 445.15L176.169 443.624L176.251 442.793L175.61 442.453L175.869 441.88L175.515 441.485L172.98 441.444L171.508 442.412L169.423 442.289L169.164 443.638L167.883 445.668L166.575 446.444L165.43 447.943L163.645 448.597L163.972 447.861L164.776 447.534L166.153 443.379L164.395 441.295L164.654 440.681L163.89 440.559L163.645 441.117L162.419 439.932L161.601 437.534L160.742 436.417L160.647 435.641L161.274 434.646L161.587 432.494L162.909 432.126L163.672 433.107L163.468 434.701L163.999 434.823L164.34 434.251L165.717 435.096L165.744 437.316L165.226 437.303L165.43 438.284L164.994 439.183L165.798 439.265L166.602 440.3L167.924 438.761L170.146 440.164L170.922 439.823L168.837 437.371L169.369 435.368L168.851 434.088L166.943 432.807L164.817 432.971L163.686 432.439L163.25 429.701L162.637 429.823L162.936 430.927L161.737 431.731L161.478 430.75L162.35 430.641L162.037 429.701L160.919 429.619L160.456 428.693L159.461 428.025L158.712 428.039L158.889 426.826L159.679 426.254L159.325 424.32L159.87 422.766L160.674 423.393L161.901 422.194L162.296 422.562L161.819 423.284L162.078 423.652L163.1 423.856L163.999 423.23L164.463 423.666L164.912 423.053L165.199 424.197L164.395 425.546L165.826 427.426L165.866 429.142L167.747 429.932L169.137 429.796L169.628 430.981L169.491 431.554L168.783 431.69L168.715 432.18L170.282 433.229L172.394 435.477L176.21 436.404L176.142 437.221L175.215 437.684L174.125 438.951L175.283 439.959L177.655 439.006ZM152.688 392.277L153.165 390.724L152.402 391.691L150.603 391.623L149.922 391.214L150.63 391.023L151.012 390.424L151.189 387.713L152.102 385.874L152.661 385.628L152.634 385.056L151.571 384.906L151.53 384.402L152.034 383.803L152.443 381.855L154.405 381.759L154.937 380.451L155.904 379.975L156.79 380.37L157.213 381.201L156.463 383.19L156.558 384.879L155.523 386.528L153.751 388.203L154.528 389.525L154.174 391.051L154.841 391.132L154.991 391.527L153.792 392.536L153.833 393.081L154.351 393.299L153.438 394.157L152.606 393.98L151.366 398.694L149.499 400.178L149.227 399.565L148.245 399.579L149.281 392.168L149.935 392.577L149.772 393.408L150.93 393.026L150.957 392.495L152.688 392.277ZM139.564 443.161L139.755 444.782L141.036 445.899L140.927 446.349L138.951 446.485L138.651 445.872L137.643 446.213L137.438 447.003L138.133 447.371L138.283 447.902L137.697 448.501L137.179 448.324L136.702 447.412L134.522 447.943L133.009 447.248L133.377 446.131L133.65 446.54L134.958 445.981L134.358 445.068L134.127 442.48L134.576 441.867L135.217 441.921L135.953 442.848L138.679 441.308L138.665 441.948L139.564 443.161ZM146.624 433.366L146.201 435.477L147.087 435.423L148.273 434.633L148.709 434.823L148.75 435.6L146.419 437.63L146.528 439.374L145.588 439.292L145.411 440.777L144.975 440.559L145.397 438.461L144.77 436.676L144.402 437.085L143.585 436.717L144.143 435.668L145.097 435.695L144.934 434.047L146.556 432.357L146.337 431.05L146.855 429.701L147.073 431.526L146.624 433.366ZM157.894 422.807L158.317 422.944L158.398 422.48L157.649 422.494L157.853 421.976L158.712 421.867L158.93 422.766L158.671 423.121L159.107 423.543L158.466 423.829L158.426 424.401L157.812 424.537L158.112 425.028L156.272 428.134L153.751 429.551L153.192 429.17L153.288 428.434L153.806 429.033L154.405 428.992L154.024 427.794L155.277 427.085L154.664 426.281L155.714 424.565L157.472 422.794L157.894 422.807ZM140.028 439.891L141.159 440.6L140.573 442.453L139.551 441.785L139.442 440.041L140.028 439.891ZM144.034 439.374L143.312 439.019L142.767 438.12L143.735 438.256L143.23 437.521L143.503 437.071L144.729 438.188L144.579 439.864L144.034 439.374ZM147.632 425.491L147.605 426.063L148.041 426.254L147.278 426.636L147.332 426.962L145.779 426.636L145.697 426.268L146.297 425.75L147.087 425.709L147.155 425.273L147.632 425.491ZM142.208 441.281L141.99 440.722L141.513 440.613L141.486 440.041L140.368 439.319L140.818 438.829L141.595 439.047L141.949 440.055L142.453 438.951L142.699 439.047L142.876 439.632L142.276 440.368L142.549 440.763L142.208 441.281ZM154.746 423.025L155.496 420.764V423.611L154.514 423.475L154.746 423.025ZM159.284 419.538L158.671 419.933L157.172 419.851L158.766 418.584L159.502 419.061L159.284 419.538ZM145.465 428.938L145.152 429.115L144.62 428.693L145.056 427.957L145.642 428.325L146.447 428.08L146.201 429.006L145.465 428.938Z" fill="#646464" fill-opacity="0.18"/>
<path d="M111.968 636.208L113.099 635.104L115.974 633.892L116.492 632.87L115.484 632.052L114.121 631.916L113.671 630.785L114.094 630.309L113.576 629.586L113.658 628.769L114.366 629.137L115.879 628.905L116.928 629.314L117.187 629.586L116.724 630.554L117.16 631.208L118.414 631.058L119.695 630.24L120.117 629.014L121.235 628.483L121.208 628.061L123.17 626.194L123.742 624.832L123.62 624.028L123.96 623.865L125.201 624.832L125.732 627.611L123.334 631.18L120.935 631.221L121.003 632.161L120.294 632.025L121.044 633.101L119.477 634.082L117.91 633.565L118.359 634.477L116.029 636.058L115.579 636.97L113.412 636.357L112.39 637.134L112.676 637.924L113.63 638.646L113.535 639.3L114.884 640.744L114.816 641.221L113.44 640.009L112.526 640.199L110.728 644L111 644.409L112.009 644.273L112.39 645.036L110.155 646.466L109.542 647.324L108.247 647.788L107.716 647.502L107.184 644.082L109.092 641.848L110.401 641.18L110.469 640.826L109.269 637.965L109.31 637.093L109.528 636.889L109.855 637.406L111.968 636.208ZM159.775 578.811L158.276 580.759L156.818 581.304L156.136 581.046L155.755 582.585L156.272 583.607L154.814 584.615L154.569 585.432L154.092 585.024L153.697 585.432L153.983 586.808L151.748 585.541L151.789 584.86L151.176 583.675L148.6 583.266L147.441 582.367L149.895 581.754L150.14 581.495L149.622 580.868L150.944 580.106L151.98 580.051L152.961 578.852L153.683 579.302L154.433 578.334L155.85 578.498L156.259 577.49L156.668 577.912L157.431 577.899L157.744 576.672L158.412 575.964L159.107 576.168L160.524 575.542L160.742 576.836L160.443 577.19L160.947 577.449L161.928 576.087L161.151 574.82L162.364 573.975L162.514 575.215L163.168 575.664L163.073 577.027L161.696 578.021L160.306 577.899L159.775 578.811ZM7.90419 698.413L7.60437 699.694L6.92297 699.912L6.96386 700.906L6.41874 700.852L6.26883 701.478L5.11045 700.974L2.94359 700.77L2.13954 700.198L1.976 700.824L0.9539 700.688L0.436035 699.952L1.56716 698.713L2.27582 698.972L2.64377 699.585L2.88908 697.95L2.63015 697.418L3.5296 696.124L4.49718 696.928L6.17343 697.146L7.90419 698.413ZM143.04 594.369L142.971 595.555L144.852 597.217L143.53 600.01L142.127 600.268L140.6 598.402L141.295 597.176L140.559 595.037L141.132 593.239L143.094 593.293L143.04 594.369ZM14.0777 695.743L15.5223 695.566L15.4541 695.089L16.4217 693.686L17.0213 694.067L17.4711 693.059L17.1167 692.459L17.8118 691.697L17.8935 691.029L18.6703 691.165L18.4795 692.241L17.6755 692.95L17.8254 693.345L17.1304 694.026L17.0895 694.598L16.2445 695.334L16.4626 696.819L15.972 698.726L13.6688 699.23L13.3418 698.604L12.4968 698.209L13.1782 697.582L13.3281 696.792L12.1561 696.233L11.7473 696.724L11.3248 696.274L11.5156 695.579L12.6467 695.825L12.6331 694.735L14.0777 695.743ZM43.1599 686.724L43.3916 686.37L43.5551 686.887L44.0184 686.847L43.2553 685.498L43.8685 685.048L44.0593 684.163L43.2962 682.296L43.5415 682.037L45.4221 684.817L45.4358 685.525L48.0387 686.601L48.5838 687.514L44.6862 688.073L43.4188 687.391L43.1599 686.724ZM133.841 609.219L133.037 609.968L131.946 610.282L131.17 609.573L130.979 608.47L131.265 607.966L132.941 608.197L135.517 606.89L136.035 606.944L133.841 609.219ZM149.758 585.228L150.29 585.473L150.699 584.765L151.53 586.25L153.056 586.468L153.342 586.917L152.961 587.707L152.443 587.953L151.693 587.258L151.448 588.143L150.481 587.013L149.581 587.707L149.717 585.8L148.859 585.282L148.491 584.342L149.431 583.947L149.69 584.247L149.281 584.56L149.758 585.228ZM83.9077 640.295L82.6948 639.613L82.3404 638.932L84.3165 638.415L85.3931 639.668L84.8752 640.336L85.066 641.303L84.1666 640.894L83.9077 640.295ZM171.604 578.879L169.969 581.427L169.178 581.727L168.51 581.209L168.579 580.215L169.41 580.119L171.045 578.566L171.604 578.879ZM40.1072 684.926L40.1208 684.013L40.5433 684.517L40.8159 683.522L42.0424 684.054L42.3694 685.007L40.7341 685.375L40.1072 684.926ZM115.62 618.851L116.847 617.448L117.528 617.325L116.724 618.824L114.734 620.418L115.62 618.851ZM112.022 628.102L112.349 628.837L110.578 628.892L110.223 628.578L110.51 628.006L112.022 628.102ZM99.7162 643.265L100.111 643.592V644.341L99.757 644.627L99.8797 645.308L99.2664 645.867L99.1847 644.532L99.7162 643.265ZM115.293 621.467L115.824 622.08L115.729 622.72L115.347 622.829L114.584 622.025L115.293 621.467ZM9.56681 701.41L10.33 701.751L9.90751 702.473L9.26699 701.914L9.56681 701.41ZM98.476 642.57L99.0484 642.856L98.3942 643.483L97.7265 643.278L98.476 642.57Z" fill="#646464" fill-opacity="0.18"/>
<path d="M316.361 385.928L316.865 384.838L315.993 384.648L315.952 383.544L316.361 382.849L317.369 382.263L316.742 381.95L317.478 380.302L317.274 378.353L316.265 376.664L316.906 373.885L316.32 373.544L317.56 372.849L316.252 372.659L314.344 371.555L314.671 371.065L314.562 369.743L314.017 369.416L314.412 368.994L314.998 369.062L315.257 370.07L318.201 370.888L318.296 372.468L318.637 372.318L319.577 373.313L320.654 372.958L320.136 372.386L320.49 371.46L321.512 371.487V372.318L323.202 373.885L323.611 375.329L325.015 376.909L324.619 377.754L324.142 377.672L323.938 379.525L323.243 380.125L322.548 383.353L323.066 383.462L323.352 384.075L322.575 385.301L323.297 387.018L323.406 388.598L323.148 390.097L322.316 390.601L320.558 390.846L318.923 391.936L316.715 391.745L313.908 392.754L311.686 392.876L310.01 393.952L308.593 394.198L308.007 394.143L307.83 392.944L307.462 392.822L310.964 391.664L313.472 389.375L314.794 387.345L316.361 385.928Z" fill="#848484"/>
<path d="M278.924 384.47L277.003 385.955L276.362 388.299L273.691 387.563L272.983 388.026L270.475 387.563L269.63 386.5L267.45 386.895L267.082 387.318L267.409 387.617L264.383 388.653L263.443 387.509L263.279 385.138L261.631 382.89L261.644 381.01L261.085 378.422L261.481 376.896L259.3 374.171L259.314 371.991L259.941 370.343L258.564 368.681L259.055 368.34L259.382 367.196L259.9 367.495L262.366 366.637L261.917 365.016L262.285 364.498L263.348 364.948L264.997 364.28L265.283 363.599L264.997 362.945L266.305 362.605L267.368 359.294L269.685 360.152L271.415 360.166L272.874 361.174L273.582 362.414L274.482 361.733L274.754 360.997L276.335 360.329L276.376 359.675L278.42 359.09L278.216 360.302L278.475 360.534L279.551 360.82L280.832 360.588L281.773 361.392L282.073 361.964L281.909 362.795L282.577 363.218L282.318 364.185L283.013 365.043L285.03 363.79L285.766 364.158L286.706 363.981L288.6 362.4L289.009 362.714L288.41 363.803L289.268 364.703L289.159 365.765L288.246 365.67L287.919 366.024L287.592 367.523L286.788 367.863L286.706 369.13L285.452 369.866L285.725 370.67L285.52 371.909L285.043 372.345L285.97 373.503L285.016 375.288L285.261 375.928L286.733 377.236L287.469 379.103L286.788 379.552L286.515 379.171L285.616 379.157L283.217 381.855L282.713 383.067L281.377 383.871L279.633 383.953L278.924 384.47ZM286.093 388.34L285.589 388.421L286.515 387.454L285.343 387.726L284.43 389.484L284.117 388.68L284.621 388.013L284.471 387.686L283.79 387.291L282.195 387.972L281.909 387.631L282.522 386.459L287.537 384.62L287.374 385.261L287.783 385.724L287.238 388.789L286.692 388.081L286.093 388.34Z" fill="#646464" fill-opacity="0.18"/>
<path d="M193.395 431.635L193.872 431.295L194.526 429.415L193.381 428.42L193.422 427.576L192.932 427.317L193.095 426.799L193.804 426.445L193.995 425.573L193.599 424.279L193.191 424.061L193.831 423.121L194.499 422.944L194.908 420.696L197.102 418.816L198.369 418.502L199.691 418.87L202.294 418.72L202.117 418.094L202.648 417.385L202.24 416.295L202.444 415.791L202.88 415.205L205.306 416.445L208.808 416.609L208.931 415.995L210.294 414.769L210.962 413.461L213.251 412.78L215.432 413.884L217.135 416.159L217.503 417.63L217.38 420.069L216.944 420.273L216.399 421.922L214.532 421.377L214.287 421.772L214.968 422.657L214.805 422.957L213.564 423.093L213.278 423.897L212.283 423.747L211.956 423.175L210.989 423.379L210.825 424.347L211.302 426.39L213.346 427.085L215.908 425.982L217.735 427.289L221.769 426.377L219.915 429.142L219.234 430.859L220.188 431.281L221.66 430.614L222.096 430.995L221.155 431.458L220.61 432.385L221.959 432.78L222.368 432.821L222.763 431.853L223.567 432.998L224.058 432.766L224.017 432.071L224.412 431.881L224.508 432.971L223.826 433.461L222.423 433.311L221.401 435.191L221.564 435.573L222.355 435.831L222.695 436.458L223.676 436.104L224.29 436.608L226.525 436.703L226.62 437.058L223.745 437.425L223.976 438.474L224.808 438.447L223.704 439.483L224.603 440.436L222.654 441.826L221.401 441.186L221.06 443.27L220.297 443.256L220.651 441.131L218.416 440.286L217.326 440.491L217.121 441.499L216.454 442.289L213.415 442.262L212.706 442.861L211.479 442.453L211.22 442.057L211.466 441.417L210.335 440.246L207.582 441.199L207.064 441.186L206.41 440.395L204.502 438.665L204.216 435.573L203.412 433.366L202.24 432.303L201.981 430.709L200.563 429.224L198.642 428.87L197.252 429.633L197.075 430.641L198.206 432.289L197.96 433.447L197.293 434.306L196.775 434.292L196.23 433.434L195.371 433.366L194.553 432.289L193.368 432.058L193.395 431.635Z" fill="#646464" fill-opacity="0.18"/>
<path d="M165.43 424.428L166.343 425.736L166.561 424.483L166.303 424.224L167.216 422.33L164.831 420.505L165.485 420.301L165.131 419.837L165.498 419.401L166.03 419.592L166.507 420.682L166.889 420.382L166.125 418.775L166.084 418.339L166.82 418.298L166.548 417.099L167.42 417.753L167.856 417.698L167.883 417.331L168.81 417.29L168.851 417.753L169.859 418.611L169.001 419.619L169.832 420.355L171.386 420.614L171.767 420.396L171.699 419.946L175.283 420.055L176.224 419.619L177.396 419.946L178.036 419.66L180.353 421.118L181.402 421.35L182.247 422.317L183.596 421.023L184.605 420.682L185.164 420.968L185.136 424.033L184.441 423.993L183.746 425.164L181.225 427.099L180.421 428.516L180.189 430.191L178.404 430.178L178.132 429.469L176.932 428.679L176.673 429.578L174.234 431.54L176.66 435.709L176.714 436.267L176.142 436.308L172.326 435.382L170.214 433.134L168.647 432.085L168.715 431.595L169.423 431.458L169.56 430.886L169.069 429.701L167.679 429.837L165.798 429.047L165.757 427.33L164.326 425.45L165.131 424.102L165.43 424.428ZM163.236 412.195L162.405 412.154L161.873 410.655L161.369 411.336L161.083 410.328L161.546 409.647L161.287 409.116L162.732 407.29L164.599 407.971L164.245 409.129L164.953 409.742L164.177 410.137L165.24 410.505L165.008 411.241L163.522 411.309L163.236 412.195ZM163.563 421.254L164.068 419.892L165.131 421.186L164.299 421.104L164.19 421.677L163.536 421.99L163.127 421.581L163.563 421.254Z" fill="#646464" fill-opacity="0.18"/>
<path d="M343.058 363.422L343.153 364.58L344.121 365.575L343.126 368.98L343.072 370.86L342.009 372.359L341.722 373.612L338.534 375.152L336.721 374.253L335.331 374.266L334.881 373.749L334.241 374.28L334.336 374.634L335.181 374.689L335.29 375.043L334.241 375.888L334.336 376.596L332.51 377.345L332.306 376.787L332.66 376.433L331.829 375.615L331.283 375.819L330.875 375.315L330.452 375.383L330.275 374.185L329.28 374.702L328.313 374.062L328.64 372.604L327.427 370.547L327.032 368.953L327.495 368.613L327.917 366.242L327.331 363.367L327.849 361.406L327.277 361.419L325.669 358.913L326.282 357.904L326.786 357.768L326.868 357.087H327.754L328.231 357.632L329.008 357.25L330.425 353.49L331.474 354.539L332.101 354.403L332.728 353.204L334.486 353.041L334.963 351.583L336.462 352.019L336.653 350.997L335.522 348.599L335.944 347.687L336.857 347.51L339.324 348.777L339.678 350.234L340.578 350.33L340.414 352.509L341.477 352.905L341.9 352.223L342.649 353.191L342.322 354.403L343.181 355.275L343.058 356.637L343.78 357.795L343.031 358.395L342.976 360.22L342.54 360.929L342.513 362.196L342.077 362.482L343.058 363.422Z" fill="#646464" fill-opacity="0.18"/>
<path d="M232.712 368.599L233.093 367.523L234.77 366.256L234.879 365.343L235.56 364.43L238.981 361.978L240.916 361.242L241.679 360.547L242.238 359.485L242.415 357.291L241.107 356.76L241.243 356.256L242.769 355.629L243.451 356.038L244.609 355.806L244.759 355.52L243.914 355.043L245.877 354.635L246.204 354.199L249.106 353.504L250.469 353.558L250.374 352.673L251.968 352.836L252.527 351.529L253.794 350.657L255.035 352.101L256.506 351.869L257.065 351.42L260.009 351.856L258.36 352.264L257.801 352.959L258.469 354.308L260.022 355.234L259.804 358.558L259.232 359.403L259.6 361.624L255.375 363.504L255.403 363.899L256.234 364.076L256.547 365.016L255.334 365.97L255.103 368.068L254.312 367.768L252.377 368.34L251.042 367.264L249.965 368.108L248.398 367.155L247.853 367.25L244.582 371.787L242.96 372.127L241.802 373.49L242.32 374.13L243.26 374.416L243.274 375.601L240.875 375.792L238.872 377.236L236.65 377.059L236.31 376.501L235.751 376.691L235.846 377.032L235.151 377.618L234.443 377.046L232.753 377.223L232.467 377.822L231.921 377.168L230.845 377.018L230.422 378.571L228.446 379.743L228.037 380.397L228.787 380.86L227.833 382.263L227.547 384.688L226.688 385.615L225.871 385.86L225.462 386.732L226.13 387.59L225.026 388.203L224.372 389.171L224.167 389.593L224.753 390.805L223.227 392.958L222.286 392.1L221.005 393.053L219.574 393.19L218.389 392.018L218.157 390.969L218.907 388.871L216.358 388.925L215.527 386.677L216.426 385.806L216.454 384.688L217.04 384.47L215.909 381.01L217.476 381.051L219.534 380.438L221.346 378.367L222.886 377.25L223.2 376.351L224.058 376.078L225.639 374.389L226.661 372.7L230.559 369.457L232.712 368.599ZM257.379 331.366L256.847 330.684L256.193 330.589L256.425 329.486L256.016 329.254L256.125 328.069L257.31 326.72L258.782 326.298L259.859 326.747L261.617 328.736L261.208 330.78L260.595 331.039L260.459 330.276L260.268 330.889L259.477 331.011L260.295 331.202L260.445 331.965L260.091 332.06L257.651 332.129L257.842 331.543L257.379 331.366ZM194.662 286.149L195.099 285.89L195.385 286.19L195.085 286.626L195.221 287.947L194.185 289.146L192.427 288.41L191.964 287.103L192.795 286.544L194.662 286.149ZM253.345 332.891L253.713 333.014L253.59 333.464L252.323 334.09L252.772 334.772L252.472 335.63L251.873 335.548L251.369 334.581L250.892 334.54L250.633 334.853L251.219 336.379L249.815 335.507L250.674 333.818L251.641 333.75L251.614 333.123L252.541 333.355L253.345 332.891ZM254.898 334.772L253.099 336.488L253.399 335.357L252.977 334.267L253.331 334.022L253.685 334.431L253.781 333.75L254.285 333.641L254.817 333.94L254.898 334.772ZM251.369 336.529L253.208 337.251L253.018 337.728L251.41 337.51L251.369 336.529Z" fill="#646464" fill-opacity="0.18"/>
<path d="M405.188 340.711L405.461 340.003L404.752 338.573L404.888 337.946L405.91 336.57L407.587 336.543L408.84 335.167L410.912 334.622L411.539 333.559L413.624 333.464L414.196 332.428L414.223 331.161L415.9 328.477L416.854 328.546L419.157 329.717L419.974 329.513L421.296 329.908L422.468 329.622L424.935 331.447L428.397 330.793L429.105 331.447L429.773 331.202L430.195 330.412L431.34 330.971L431.109 332.183L432.281 334.853L432.812 334.989L433.344 334.513L434.311 336.42L434.393 337.837L436.669 342.224L436.369 344.036L435.892 344.403L434.638 344.499L434.407 343.927L433.698 344.117L433.085 343.736L432.526 344.744L430.1 344.322L429.187 345.412L428.437 345.016L427.197 345.521L426.816 344.335L424.649 345.357L422.945 345.398L422.223 344.581L421.16 344.376L420.601 343.191L417.739 342.987L416.336 342.224L414.074 341.842L413.12 341.107L411.225 341.897L410.98 342.496L409.494 342.891L408.554 342.169L406.973 341.897L406.578 341.025L405.188 340.711Z" fill="#646464" fill-opacity="0.18"/>
<path d="M415.45 374.648L413.992 377.441L412.316 378.83L411.661 380.547L412.057 381.582L411.443 381.814L410.789 381.473L410.231 381.732L409.958 382.441L408.241 383.449L407.723 383.258L406.251 381.868L406.565 381.473L406.374 380.969L405.379 380.52L405.393 379.416L406.401 378.422L405.747 376.95L406.115 376.678L405.842 374.239L406.755 373.408L406.02 371.324L406.687 369.648L409.481 369.866L409.849 368.899L407.423 366.733L404.261 366.038L400.527 367.155L399.301 369.294L399.846 369.975L399.546 370.792L395.362 373.054L394.272 374.879L394.517 376.242L393.577 377.918L391.506 379.484L390.77 381.351L390.783 382.332L391.806 383.299L391.683 383.599L385.591 381.446L382.784 381.351L380.276 381.964L376.651 381.133L371.8 381.037L371.582 377.877L372.168 376.201L375.915 374.103L377.66 371.487L377.701 370.043L379.69 367.318L380.331 366.991L380.222 366.351L380.998 365.561L380.303 364.88L380.726 363.545L382.184 363.395L382.811 362.128L383.506 362.114L383.792 361.528L385.537 360.656L387.186 359.28L389.434 358.422L389.625 357.441L388.903 356.528V355.616L389.911 355.261L389.339 353.477L389.898 352.714L389.448 352.36L390.211 351.474L390.702 351.665L391.492 349.431L392.773 353.763L392.255 355.37L392.569 356.828L391.942 358.095L392.392 359.866L393.318 360.561L394.354 359.853L395.39 360.343L396.33 364.008L397.27 364.689L398.96 364.852L399.941 363.994L399.396 360.37L399.982 359.539L399.914 357.21L401.263 355.97L402.04 357.686L403.444 357.523L404.057 358.844L407.873 358.204L408.377 357.836L409.331 357.932L410.244 357.4L412.302 357.359L412.506 357.686L412.983 359.757L412.602 361.079L411.825 361.923L412.152 363.994L413.106 364.73L413.283 365.656L415.355 365.942L414.442 367.264L414.251 368.64L415.109 368.98L414.932 370.792L416.336 371.923L416.186 374.008L415.45 374.648Z" fill="#646464" fill-opacity="0.18"/>
<path d="M446.263 306.571L446.14 309.282L446.508 310.63L446.208 312.402L447.053 313.764L446.931 314.2L445.636 314.486L445.254 315.004L446.031 317.66L446.058 320.126L444.805 322.66L444.519 324.254L443.605 324.527L443.224 323.995L442.611 324.022L442.052 324.663L441.125 324.336L441.057 325.044L440.703 325.221L438.577 325.33L438.4 325.943L437.037 326.584L436.873 327.783L435.333 327.401L434.57 329.704L432.335 330.889L431.34 330.971L430.195 330.412L429.5 329.336L429.623 328.954L429.105 328.627L427.593 328.872L426.625 328.287L425.249 328.682L423.736 327.36L423.79 326.57L422.359 325.507L422.605 324.2L424.226 322.088L423.777 321.053L424.322 319.418L425.439 318.532L424.976 317.606L423.3 317.701L421.296 316.693L421.542 314.827L422.346 313.614L421.964 312.02L423.354 310.099L421.964 309.5L422.755 307.402L424.036 306.816L425.003 305.426L426.843 305.099L428.097 304.077L428.955 303.955L429.269 303.369L430.345 303.097L430.7 302.538L434.516 301.353L434.761 300.113L436.614 299.309L439.912 299.691L443.169 301.053L444.559 302.388L444.873 303.655L446.031 303.587L445.813 306.121L446.263 306.571Z" fill="#646464" fill-opacity="0.18"/>
<path d="M422.959 380.656L422.032 380.125L421.842 379.566L421.76 377.672L422.073 376.991L423.736 377.577L424.444 378.83L424.226 380.874L422.959 380.656ZM420.084 389.034L419.634 392.154L418.966 391.609L418.884 390.901L420.084 389.034ZM418.148 392.018L418.489 392.386L417.658 392.658L418.148 392.018ZM434.938 349.676L433.821 349.594L433.548 348.327L432.867 348.926L432.458 351.052L432.894 352.074L433.235 351.869L433.834 352.836L432.649 352.564L431.381 352.959L431.368 352.441L430.713 352.128L430.264 351.215L426.611 349.485L425.576 350.725L424.908 350.084L424.608 350.398L425.685 351.242L425.426 353.994L425.017 354.035L423.177 351.46L420.247 350.507L419.075 350.725L418.271 349.376L417.44 349.417L416.813 348.668L415.995 348.49L413.133 346.91L410.98 342.496L411.239 341.897L413.12 341.107L414.087 341.842L416.349 342.237L417.753 343L420.615 343.205L421.174 344.39L422.237 344.608L422.959 345.425L424.663 345.371L426.829 344.349L427.211 345.534L428.465 345.03L429.214 345.425L430.127 344.335L432.553 344.771L433.112 343.749L433.725 344.131L434.434 343.94L434.665 344.512L435.933 344.417L437.405 347.496L437.882 348.531L437.119 348.967L437.664 349.485L436.533 350.262L434.938 349.676ZM427.279 400.928L427.647 400.301L427.606 399.579L426.898 398.857L425.63 399.007L425.085 400.369L425.33 401.227L426.271 401.35L427.279 400.928ZM433.412 432.684L434.734 433.502L434.938 432.548L435.47 432.426L435.129 431.186L434.379 431.118L433.18 429.892L432.526 429.905L432.308 430.886L432.689 431.649L433.262 431.826L433.412 432.684ZM433.412 432.684L434.734 433.502L434.938 432.548L435.47 432.426L435.129 431.186L434.379 431.118L433.18 429.892L432.526 429.905L432.308 430.886L432.689 431.649L433.262 431.826L433.412 432.684Z" fill="#646464" fill-opacity="0.18"/>
<path d="M297.622 408.571L294.774 409.756L293.561 410.805L293.316 411.5L291.612 412.739L289.99 413.693L288.737 413.952L287.865 416.391L286.652 416.336L286.365 416.976L286.72 417.167L286.311 417.412L283.435 417.113L282.372 415.491L282.236 414.851L282.877 414.115L282.563 413.026L279.879 412.957L279.742 410.233L279.047 408.516L278.093 408.748L277.753 408.121L277.221 408.298L276.649 409.402L275.817 409.674L274.741 409.238L273.855 408.012L271.388 408.244L269.562 407.535L269.058 406.8L269.821 405.573V404.157L269.453 403.489L269.848 402.563L270.693 402.263L270.884 401.568L272.247 400.424L273.037 400.683L273.419 400.001L274.455 399.606L276.335 399.266L277.507 400.587H278.148L279.742 399.347L281.432 399.157L281.868 398.694L281.786 398.121L282.795 397.331L285.112 397.086L287.333 397.44L287.715 397.031L289.2 397.822L289.772 397.522L289.99 396.214L293.82 395.138V396.418L294.842 397.086L293.861 401.119L293.983 402.617L294.638 403.339L295.128 402.576L295.932 404.034L296.791 404.524L296.082 405.056L297.036 405.315L296.845 405.941L295.087 407.222L294.965 407.671L295.333 407.958L298.031 408.012L298.222 408.298L297.622 408.571Z" fill="#646464" fill-opacity="0.18"/>
<path d="M260.036 355.221L262.026 355.616L262.666 355.398L263.307 354.226L264.642 353.545L267.095 353.027L269.058 353.817L271.511 354.049L276.104 353.736L277.017 353.232L278.925 353.463L281.446 353.191L285.234 352.182L285.998 351.133L287.033 351.065L287.21 350.534L288.042 350.357L288.982 351.065L289.5 352.114L289.336 353.504L290.004 356.065L290.999 356.528L290.876 358L291.871 359.308L291.667 359.893L292.021 361.474L289.786 363.04L288.996 362.686L288.587 362.373L286.693 363.953L285.752 364.13L285.016 363.763L282.999 365.016L282.304 364.158L282.563 363.19L281.895 362.768L282.059 361.937L281.759 361.365L280.819 360.561L279.538 360.793L278.461 360.507L278.202 360.275L278.407 359.062L276.363 359.648L276.322 360.302L274.741 360.97L274.468 361.705L273.569 362.387L272.86 361.147L271.402 360.139L269.671 360.125L267.354 359.267L266.291 362.577L264.983 362.918L265.269 363.572L264.983 364.253L263.334 364.921L262.271 364.471L261.903 364.989L262.353 366.61L259.886 367.468L259.368 367.168L259.041 368.313L258.551 368.653L257.978 367.972L255.116 368.408V368.054L255.348 365.956L256.561 365.002L256.248 364.062L255.416 363.885L255.389 363.49L259.614 361.61L259.246 359.389L259.818 358.545L260.036 355.221Z" fill="#646464" fill-opacity="0.18"/>
<path d="M361.878 311.557L363.664 312.483L364.999 312.17L367.643 312.293L369.237 310.78L369.728 309.404L369.687 307.756L370.191 306.789L372.018 305.821L375.806 305.004L376.76 306.107L377.878 306.448L377.919 308.083L378.45 308.9V309.949L379.254 312.238L378.982 317.933L377.373 318.886L377.223 319.935L377.51 319.881L377.673 320.548L376.842 320.78L376.31 321.502L376.338 322.524L375.765 323.627L374.539 324.799L373.258 324.704L372.113 323.587L371.145 324.05L369.605 323.573L369.224 322.51L367.384 323.6L367.098 323.546L367.043 322.347L366.239 322.279L364.25 323.219L363.909 322.619L363.159 322.646L360.325 325.398L359.984 326.965L358.09 328.627L357.626 328.518L357.981 327.524L357.517 326.475L356.264 325.78L355.787 326.27L355.446 325.467L354.397 326.23L354.001 327.674L353.211 327.783L353.007 326.57L353.443 325.998L352.829 323.423L353.851 319.404L353.225 318.614L352.966 317.074L354.015 315.399L353.702 314.772L353.92 313.451L354.669 312.565L355.487 307.81L357.395 305.944L358.39 305.59L360.079 305.726L358.267 308.846L360.202 310.971L361.142 311.652L361.878 311.557Z" fill="#646464" fill-opacity="0.18"/>
<path d="M327.14 418.475L326.404 418.993L325.968 419.933L326.091 420.9L325.437 421.009L325.096 420.532L325.532 419.51L324.456 419.66L321.894 418.638L318.691 418.121L315.938 416.472L315.379 415.464L315.584 414.388L313.853 413.53L315.189 412.808L315.529 412.031L313.567 410.369L309.996 408.72L309.07 406.8L308.02 406.282L306.508 406.718L306.794 403.543L308.933 402.672L309.601 401.813L308.606 400.778L307.08 400.437L307.911 399.565L308.32 398.435L309.506 398.53L309.915 398.053L309.737 397.031L308.715 396.759L308.129 395.097L306.767 393.625L306.944 392.972L307.434 392.781L307.802 392.903L307.979 394.102L308.565 394.157L309.983 393.912L311.659 392.835L313.88 392.713L316.688 391.705L318.895 391.895L320.531 390.805L322.289 390.56L322.834 391.487L323.106 393.83L324.319 394.511L324.606 395.41L324.074 396.228L322.97 395.724L322.221 396.091L322.234 397.059L321.716 397.835L319.686 399.811L319.509 400.546L321.062 401.854L320.981 402.576L321.771 402.862L322.153 403.557L321.185 406.05L321.703 406.227L321.989 407.004L323.556 406.077L324.456 406.091L325.355 406.65L328.094 406.186L327.999 408.802L330.316 411.445L332.074 411.813L331.624 412.426L331.42 413.993L330.111 414.347L329.798 415.505L330.779 415.887L330.684 416.363L327.849 418.352L327.14 418.475Z" fill="#646464" fill-opacity="0.18"/>
<path d="M211.234 402.113L210.43 401.554L209.953 402.753L208.945 403.23L208.55 402.958L208.754 402.154L208.154 401.963L207.105 403.952L204.761 405.355L201.79 404.293L201.899 403.217L198.819 401.473L197.879 401.99L197.443 403.189L194.935 405.614L194.676 404.81L195.303 403.625L195.262 401.336L193.818 399.266L193.981 398.435L195.003 398.258L195.753 396.745L195.426 395.097L193.968 393.503L194.376 393.285L194.894 391.418L198.492 390.86L198.083 390.206L196.421 389.688L196.802 388.571L198.056 389.579L199.528 389.116L200.236 389.32L201.722 390.833L205.756 390.478L206.601 389.348L207.991 389.389L209.953 387.1L209.585 386.201L210.062 385.438L211.016 385.628L211.97 384.661L212.434 384.089L212.474 382.917L213.101 382.767L213.619 381.569L213.96 381.255L215.282 381.65L215.922 380.983L217.053 384.443L216.467 384.661L216.44 385.778L215.541 386.65L216.372 388.898L218.92 388.844L218.171 390.942L218.403 391.991L219.588 393.162L221.019 393.026L222.3 392.072L223.241 392.931L224.767 390.778L224.181 389.566L224.385 389.143L225.039 388.176L226.143 387.563L226.552 388.489L226.32 389.593L226.648 391.446L227.901 392.508L227.792 393.367L228.474 395.356L230.218 395.778L230.668 395.519L230.995 396.187L230.6 396.895L231.104 397.535L229.768 398.775L230.095 402.808L229.319 404.116L227.833 404.279L227.847 406.486L228.637 407.413L228.188 408.271L227.52 406.813L225.571 405.819L225.067 406.05L220.147 402.29L219.506 403.108L219.466 403.857L218.225 403.584L219.752 401.977L218.048 401.009L217.34 400.9L214.859 401.65L211.997 402.958L211.234 402.113ZM231.867 407.045L230.641 406.854L229.932 407.481L229.141 406.295L229.06 405.219L230.668 403.925L232.521 405.464L233.857 405.546L235.574 404.388L237.073 404.47L235.356 405.778L234.388 405.764L234.129 406.186L234.388 407.317L233.203 407.453L233.066 406.336L232.467 406.2L231.731 406.323L231.867 407.045Z" fill="#646464" fill-opacity="0.18"/>
<path d="M415.982 348.49L415.954 352.046L415.491 353L414.823 353.708L413.856 353.845L413.229 354.73L410.789 355.861L410.244 357.4L409.331 357.932L408.377 357.836L407.873 358.204L404.057 358.844L403.444 357.523L402.04 357.686L401.263 355.97L399.914 357.21L399.982 359.539L399.396 360.37L399.941 363.994L398.96 364.852L397.27 364.689L396.33 364.008L395.39 360.343L394.354 359.853L393.318 360.561L392.391 359.866L391.942 358.095L392.569 356.828L392.255 355.37L392.773 353.763L391.492 349.431L390.497 347.019L391.86 345.521L390.661 344.349L391.983 341.665L392.255 341.502L393.236 342.346L395.648 338.654L397.597 339.444L397.584 340.357L398.238 341.079L398.892 340.957L399.192 340.398L401.59 340.439L402.326 341.992L403.648 341.978L404.643 340.698L405.188 340.711L406.578 341.025L406.973 341.897L408.554 342.169L409.495 342.891L410.98 342.496L413.12 346.91L415.982 348.49Z" fill="#646464" fill-opacity="0.18"/>
<path d="M446.863 271.544L446.454 273.874L446.508 276.612L447.258 277.171L445.445 279.364L443.674 279.01L442.665 279.773L440.662 278.247L438.986 278.874L437.664 276.585L437.214 277.062L436.355 277.157L435.524 276.626L434.243 277.416L433.385 276.49L432.308 276.735L431.695 275.686L431.081 275.863L430.182 275.427L429.283 273.847L430.087 269.528L431.027 268.833L430.55 267.798L431.013 266.681L430.795 264.896L431.504 263.779L433.657 264.079L435.524 262.907L436.601 260.741L435.034 259.065L432.526 258.411L431.436 256.872L431.981 254.161L431.654 253.766L429.637 253.33L427.17 252.022L428.765 247.826L431.136 245.768L432.69 243.725L434.23 238.166L435.061 236.75L436.015 233.153L435.769 232.363L439.19 232.921L439.694 232.295L441.03 231.968L441.302 233.562L442.27 233.807L443.347 234.761L447.544 236.041L449.016 235.673L449.493 236.722L450.937 236.831L451.728 239.284L453.799 240.006L454.126 240.619L453.813 241.096L455.258 242.485L455.516 243.929L456.648 244.542L455.721 246.041L456.021 247.362L455.435 248.929L454.89 249.065L453.99 248.589L453.854 248.902L454.685 250.768L454.726 251.504L454.208 252.39L454.576 253.629L455.394 254.161L455.666 255.114L454.835 257.294L453.35 258.847L453.568 259.665L452.137 261.463L451.919 262.852L452.232 264.528L450.719 266.681L450.46 268.07L449.111 268.82L446.767 268.833L446.863 271.544Z" fill="#646464" fill-opacity="0.18"/>
</svg>
