<svg width="731" height="181" viewBox="0 0 731 181" fill="none" xmlns="http://www.w3.org/2000/svg">
<path d="M251.78 180.23H210.723L210.723 49.9453L170.394 61.6903V30.6933L248.015 3.9341L251.78 3.9341L251.78 180.23Z" fill="#FF2C2C" fill-opacity="0.8"/>
<path d="M126.382 180.23L3.62473 180.23L3.62473 153.568L60.1704 93.9412C74.1055 78.0247 81.073 65.3804 81.073 56.0082C81.073 48.4135 79.4218 42.6367 76.1192 38.6778C72.8167 34.7188 68.024 32.7394 61.7412 32.7394C55.5389 32.7394 50.5045 35.4056 46.6381 40.738C42.7718 45.9897 40.8386 52.5744 40.8386 60.4923L0 60.4923C0 49.6658 2.69841 39.6877 8.09522 30.5579C13.492 21.3473 20.9831 14.1566 30.5685 8.98578C40.1539 3.81493 50.867 1.22951 62.7078 1.22951C81.7174 1.22951 96.3372 5.63281 106.567 14.4394C116.877 23.246 122.032 35.8904 122.032 52.3724C122.032 59.3208 120.744 66.1075 118.166 72.7327C115.588 79.277 111.561 86.185 106.084 93.4565C100.687 100.647 91.9472 110.302 79.8648 122.421L57.1498 148.72L126.382 148.72V180.23Z" fill="#FF2C2C" fill-opacity="0.8"/>
<path fill-rule="evenodd" clip-rule="evenodd" d="M395.62 141.424C423.996 141.424 447 118.452 447 90.1149C447 61.7774 423.996 38.8054 395.62 38.8054C367.244 38.8054 344.241 61.7774 344.241 90.1149C344.241 118.452 367.244 141.424 395.62 141.424ZM395.62 180.23C445.457 180.23 485.858 139.884 485.858 90.1149C485.858 40.3458 445.457 0 395.62 0C345.783 0 305.382 40.3458 305.382 90.1149C305.382 139.884 345.783 180.23 395.62 180.23Z" fill="#FF2C2C" fill-opacity="0.8"/>
<path fill-rule="evenodd" clip-rule="evenodd" d="M614.33 141.424C642.59 141.424 665.5 118.452 665.5 90.1149C665.5 61.7774 642.59 38.8054 614.33 38.8054C586.07 38.8054 563.161 61.7774 563.161 90.1149C563.161 118.452 586.07 141.424 614.33 141.424ZM614.33 180.23C663.964 180.23 704.199 139.884 704.199 90.1149C704.199 40.3458 663.964 0 614.33 0C564.697 0 524.461 40.3458 524.461 90.1149C524.461 139.884 564.697 180.23 614.33 180.23Z" fill="#FF2C2C" fill-opacity="0.8"/>
<path d="M278.581 180.23H237.524L237.524 49.9453L197.195 61.6903V30.6933L274.816 3.9341L278.581 3.9341V180.23Z" fill="#725CF7" fill-opacity="0.7"/>
<path d="M153.429 180.23L30.4326 180.23L30.4326 153.568L87.0883 93.9412C101.05 78.0247 108.032 65.3804 108.032 56.0082C108.032 48.4135 106.377 42.6367 103.068 38.6778C99.7592 34.7188 94.9571 32.7394 88.6621 32.7394C82.4477 32.7394 77.4035 35.4056 73.5297 40.738C69.6558 45.9897 67.7188 52.5744 67.7188 60.4923L26.8008 60.4923C26.8008 49.6658 29.5044 39.6877 34.9118 30.5579C40.3191 21.3473 47.8247 14.1566 57.4288 8.98578C67.0328 3.81493 77.7667 1.22951 89.6305 1.22951C108.677 1.22951 123.325 5.63281 133.575 14.4394C143.905 23.246 149.071 35.8904 149.071 52.3724C149.071 59.3208 147.779 66.1075 145.197 72.7327C142.614 79.277 138.579 86.185 133.091 93.4565C127.683 100.647 118.927 110.302 106.821 122.421L84.0618 148.72L153.429 148.72V180.23Z" fill="#725CF7" fill-opacity="0.7"/>
<path fill-rule="evenodd" clip-rule="evenodd" d="M422.298 141.424C450.558 141.424 473.467 118.452 473.467 90.1149C473.467 61.7774 450.558 38.8054 422.298 38.8054C394.038 38.8054 371.129 61.7774 371.129 90.1149C371.129 118.452 394.038 141.424 422.298 141.424ZM422.298 180.23C471.931 180.23 512.167 139.884 512.167 90.1149C512.167 40.3458 471.931 0 422.298 0C372.665 0 332.429 40.3458 332.429 90.1149C332.429 139.884 372.665 180.23 422.298 180.23Z" fill="#725CF7" fill-opacity="0.7"/>
<path fill-rule="evenodd" clip-rule="evenodd" d="M640.885 141.424C669.223 141.424 692.195 118.452 692.195 90.1149C692.195 61.7774 669.223 38.8054 640.885 38.8054C612.548 38.8054 589.576 61.7774 589.576 90.1149C589.576 118.452 612.548 141.424 640.885 141.424ZM640.885 180.23C690.654 180.23 731 139.884 731 90.1149C731 40.3458 690.654 0 640.885 0C591.116 0 550.77 40.3458 550.77 90.1149C550.77 139.884 591.116 180.23 640.885 180.23Z" fill="#725CF7" fill-opacity="0.7"/>
</svg>
