<svg width="29" height="29" viewBox="0 0 29 29" fill="none" xmlns="http://www.w3.org/2000/svg">
<path d="M14.2985 21.1514C18.0855 21.1514 21.1555 18.0814 21.1555 14.2944C21.1555 10.5073 18.0855 7.43732 14.2985 7.43732C10.5114 7.43732 7.44141 10.5073 7.44141 14.2944C7.44141 18.0814 10.5114 21.1514 14.2985 21.1514Z" fill="white"/>
<path d="M14.2985 5.31869C13.9726 5.31869 13.7102 5.05633 13.7102 4.73038V0.588316C13.7102 0.262357 13.9726 0 14.2985 0C14.6245 0 14.8908 0.262357 14.8908 0.588316V4.73038C14.8908 5.05633 14.6245 5.31869 14.2985 5.31869Z" fill="white"/>
<path d="M28.0082 14.8868H23.8701C23.5442 14.8868 23.2778 14.6205 23.2778 14.2945C23.2778 13.9686 23.5442 13.7062 23.8701 13.7062H28.0082C28.3342 13.7062 28.5965 13.9686 28.5965 14.2945C28.5965 14.6205 28.3342 14.8868 28.0082 14.8868Z" fill="white"/>
<path d="M14.2985 28.601C13.9726 28.601 13.7102 28.3346 13.7102 28.0087V23.8666C13.7102 23.5406 13.9726 23.2783 14.2985 23.2783C14.6245 23.2783 14.8908 23.5406 14.8908 23.8666V28.0047C14.8908 28.3306 14.6245 28.601 14.2985 28.601Z" fill="white"/>
<path d="M4.73038 14.8868H0.592291C0.262357 14.8868 0 14.6205 0 14.2945C0 13.9686 0.262357 13.7062 0.592291 13.7062H4.73038C5.05633 13.7062 5.32267 13.9686 5.32267 14.2945C5.32267 14.6205 5.05633 14.8868 4.73038 14.8868Z" fill="white"/>
<path d="M7.53258 8.12105C7.37755 8.12105 7.2265 8.06142 7.1152 7.94614L4.18952 5.02444C3.95896 4.78991 3.95896 4.42023 4.18952 4.18569C4.42007 3.95116 4.79373 3.95116 5.02429 4.18569L7.94997 7.11137C8.18053 7.3459 8.18053 7.71559 7.94997 7.94614C7.83469 8.0654 7.68364 8.12105 7.53258 8.12105Z" fill="white"/>
<path d="M21.0676 8.12105C20.9126 8.12105 20.7655 8.06142 20.6503 7.94614C20.4157 7.71559 20.4157 7.3459 20.6503 7.11137L23.5759 4.18569C23.8065 3.95116 24.1802 3.95116 24.4107 4.18569C24.6452 4.42023 24.6452 4.78991 24.4107 5.02444L21.489 7.94614C21.3698 8.0654 21.2147 8.12105 21.0676 8.12105Z" fill="white"/>
<path d="M23.9933 24.5821C23.8383 24.5821 23.6912 24.5265 23.5759 24.4112L20.6503 21.4855C20.4157 21.251 20.4157 20.8813 20.6503 20.6468C20.8808 20.4162 21.2545 20.4162 21.489 20.6468L24.4107 23.5764C24.6452 23.807 24.6452 24.1767 24.4107 24.4112C24.2954 24.5265 24.1444 24.5821 23.9933 24.5821Z" fill="white"/>
<path d="M4.6069 24.5821C4.45585 24.5821 4.3048 24.5265 4.18952 24.4112C3.95896 24.1767 3.95896 23.807 4.18952 23.5764L7.11917 20.6468C7.34973 20.4162 7.72339 20.4162 7.95394 20.6468C8.1845 20.8813 8.1845 21.251 7.95394 21.4855L5.02429 24.4112C4.90901 24.5265 4.75796 24.5821 4.6069 24.5821Z" fill="white"/>
</svg>
